<svg width="408" height="540" viewBox="0 0 408 540" fill="none" xmlns="http://www.w3.org/2000/svg">
<g clip-path="url(#clip0_106_9)">
<path d="M-143 -28H453.505V568.505H-143V-28ZM168.115 31.2602C157.297 33.835 146.084 38.0466 136.903 44.3029C131.217 48.1825 126.837 52.8311 122.019 57.3223C116.287 62.6699 111.196 68.7922 106.746 75.6893C106.144 76.6252 105.831 76.5359 105.808 75.4214C105.779 73.7029 106.693 71.8214 107.951 70.4175C111.703 66.2311 115.584 62.165 119.596 58.2194C121.181 56.6641 124.128 54.4621 125.946 52.0155C125.977 51.9709 125.994 51.9174 125.994 51.8626C125.994 51.8079 125.976 51.7546 125.944 51.7103C125.912 51.6659 125.867 51.6328 125.815 51.6154C125.763 51.5981 125.707 51.5974 125.654 51.6136C124.023 52.1767 122.282 53.2097 120.429 54.7126C115.466 58.7359 111.392 62.6913 108.208 66.5786C107.491 67.4466 106.647 68.0641 105.779 66.9398L106.717 62.2738C106.771 62.0097 106.67 61.833 106.414 61.7437L105.796 61.5282C105.746 61.5109 105.692 61.5064 105.639 61.5148C105.586 61.5233 105.537 61.5446 105.494 61.5768C105.451 61.609 105.417 61.6511 105.395 61.6995C105.372 61.7479 105.362 61.8011 105.365 61.8544L105.621 66.9573C103.536 67.4932 101.771 67.0738 101.002 69.8524C100.21 72.7029 99.6194 75.6058 99.2311 78.5612C99.2236 78.6229 99.1981 78.681 99.1577 78.7282C99.1173 78.7754 99.0638 78.8096 99.0039 78.8264C98.9441 78.8432 98.8807 78.8419 98.8216 78.8227C98.7625 78.8035 98.7104 78.7672 98.6719 78.7184L97.3903 77.1165C97.3387 77.0521 97.2721 77.0017 97.1967 76.9701C97.1213 76.9386 97.0396 76.9268 96.9592 76.9359C90.5107 77.6117 83.066 81.6311 83.9515 89.1806C83.9825 89.4602 84.1379 89.5864 84.4175 89.5592L86.1068 89.4136C86.2216 89.4047 86.3287 89.3519 86.4057 89.2662C86.4827 89.1806 86.5237 89.0685 86.5204 88.9534C86.4796 86.9553 86.1185 84.5379 88.9146 84.2408C89.1126 84.2214 89.2874 84.1476 89.4388 84.0194C91.5553 82.2408 93.9864 81.134 96.7321 80.699C96.8339 80.6812 96.9388 80.7006 97.0276 80.7537C97.1163 80.8068 97.183 80.89 97.2155 80.9882C97.248 81.0864 97.2441 81.193 97.2046 81.2886C97.165 81.3841 97.0924 81.4623 97 81.5087C94.9262 82.5864 90.7495 84.7651 90.7088 87.4854C90.701 87.9359 90.8796 88.9515 91.2447 90.532C91.2913 90.7262 91.235 90.8816 91.0757 90.9981C87.1204 93.8583 84.8427 98.1456 83.2058 102.94C78.6311 116.361 75.2932 130.078 73.1922 144.089C73.1817 144.131 73.1873 144.175 73.2079 144.212C73.2285 144.25 73.2627 144.278 73.3034 144.292C73.3441 144.305 73.3884 144.302 73.4272 144.284C73.4661 144.266 73.4966 144.234 73.5126 144.194C74.3398 142.586 74.833 140.843 74.9922 138.963C75 138.905 75.0194 138.856 75.0505 138.817C75.0971 138.767 75.1456 138.738 75.1961 138.73C75.3165 138.715 75.3748 138.767 75.3709 138.887L75.2311 142.074C74.9631 152.392 75.5049 163.045 76.8563 174.031C77.835 181.983 80.0136 205.942 85.0757 209.443C85.2466 209.563 85.4388 209.625 85.6524 209.629L88.5709 209.722C88.6848 209.726 88.794 209.769 88.8796 209.844C88.9652 209.919 89.0219 210.022 89.0398 210.134C89.0578 210.247 89.0359 210.362 88.9779 210.46C88.92 210.558 88.8296 210.633 88.7223 210.672C75.8194 215.338 87.0854 241.388 89.4039 250.085C90.732 255.06 91.0757 259.557 91.932 264.305C92.4388 267.101 92.934 277.348 97.6233 276.899C97.7505 276.887 97.8788 276.903 97.9995 276.945C98.1201 276.987 98.2303 277.055 98.3226 277.143C98.4148 277.231 98.487 277.338 98.5342 277.457C98.5814 277.576 98.6025 277.703 98.5961 277.831C98.3631 282.043 100.437 291.561 106.175 290.431C106.416 290.383 106.667 290.422 106.883 290.542C107.1 290.661 107.267 290.853 107.357 291.084C113.159 305.884 120.903 319.66 130.588 332.414C132.452 334.872 135.167 337.773 137.282 340.639C137.406 340.81 137.363 340.884 137.153 340.86C136.621 340.806 136.241 340.847 136.012 340.983C130.858 344.039 128.744 348.604 129.668 354.678C129.866 355.988 129.685 357.386 130.029 358.773C133.676 373.423 143.538 387.462 154.874 397.091C161.662 402.862 168.794 408.186 176.27 413.064C177.109 413.612 177.897 413.784 178.635 413.583C178.768 413.547 178.889 413.478 178.988 413.382C179.087 413.287 179.161 413.168 179.201 413.037C179.242 412.905 179.249 412.766 179.221 412.631C179.193 412.496 179.132 412.371 179.043 412.266C177.874 410.899 176.561 409.612 175.105 408.404C169.843 404.05 164.561 399.718 159.26 395.408C148.53 386.685 140.542 375.917 135.295 363.101C133.699 359.204 130.961 351.386 137.812 350.903C142.88 350.548 146.602 350.92 150.132 353.431C156.767 358.138 163.559 363.497 170.689 367.295C182.136 373.4 192.231 378.794 205.355 373.953C217.565 369.452 228.8 363.254 239.06 355.359C242.357 352.825 245.818 349.295 249.266 346.348C250.6 345.206 252.167 344 254.054 344.332C258.039 345.031 263.002 346.499 264.383 351.037C266.421 357.724 261.831 364.86 258.085 370.033C252.738 377.416 246.808 384.274 240.295 390.608C226.419 404.105 209.235 413.571 205.076 433.971C205.073 434.016 205.053 434.058 205.02 434.088C204.987 434.118 204.943 434.133 204.898 434.131C204.853 434.129 204.811 434.109 204.781 434.075C204.751 434.042 204.736 433.998 204.738 433.953C203.806 425.612 203.474 417.468 193.804 414.643C189.796 413.466 185.363 412.936 181.373 414.462C173.893 417.322 167.229 419.14 161.346 424.307C157.016 428.109 152.132 433.082 146.695 439.225C143.328 443.029 139.256 444.917 134.095 444.095C114.621 440.996 108.575 420.532 103.32 404.938C102.75 403.249 101.596 402.6 99.8602 402.992C99.7262 403.022 99.5998 403.079 99.4885 403.159C99.3773 403.239 99.2836 403.342 99.2132 403.459C99.1429 403.577 99.0973 403.708 99.0793 403.844C99.0614 403.98 99.0714 404.118 99.1087 404.251C101.386 412.307 103.979 421.243 107.986 428.169C111.249 433.808 115.513 439.645 120.959 443.105C129.097 448.272 139.652 451.062 147.563 443.583C152.631 438.8 157.699 432.654 164.118 427.377C170.078 422.478 177.196 417.753 185.247 420.882C191.532 423.328 192.738 436.907 193.355 443.705C193.899 449.67 194.433 455.625 194.957 461.571C194.977 461.765 194.889 461.87 194.695 461.885C182.631 462.724 180.546 480.357 192.948 484.132C196.641 485.256 199.734 484.15 202.833 482.163C203.008 482.054 203.093 482.103 203.089 482.309C202.984 491.054 202.961 499.8 203.019 508.546C203.084 517.645 203.975 525.928 205.46 534.579C205.55 535.118 205.678 535.583 205.845 535.971C205.87 536.03 205.911 536.081 205.964 536.117C206.017 536.154 206.079 536.175 206.143 536.177C206.207 536.18 206.271 536.164 206.326 536.131C206.382 536.099 206.427 536.051 206.456 535.994C207.493 533.94 208.297 531.843 208.868 529.703C211.816 518.583 213.208 507.864 213.208 496.272C213.208 484.955 213.421 473.645 213.849 462.34C214.256 451.458 216.219 440.647 218.823 430.161C219.515 427.384 220.55 424.985 221.928 422.961C223.575 420.557 225.769 420.188 228.511 421.854C244.647 431.687 256.198 446.891 272.526 456.573C272.693 456.67 272.864 456.682 273.039 456.608C273.73 456.328 274.219 455.843 274.507 455.151C274.588 454.953 274.559 454.775 274.419 454.616C273.775 453.885 273.066 453.223 272.293 452.629C261.621 444.456 251.753 435.439 241.816 426.416C238.291 423.218 235.093 421.004 231.15 418.924C226.951 416.707 223.373 417.006 220.414 419.821C217.955 422.157 217.181 425.035 216.126 428.408C213.085 438.109 211.289 447.332 210.738 456.078C210.155 465.375 210.487 478.33 210.097 489.171C209.751 498.755 209.016 508.386 207.889 518.064C207.879 518.14 207.842 518.209 207.786 518.26C207.73 518.312 207.657 518.342 207.581 518.345C207.505 518.348 207.43 518.325 207.369 518.279C207.309 518.233 207.266 518.167 207.249 518.093C207.214 517.934 207.198 517.699 207.202 517.388C207.249 511.359 206.771 504.963 206.847 499.33C206.909 494.584 206.95 489.839 206.969 485.093C206.986 480.847 207.511 475.429 207.371 470.553C207.097 461.344 206.538 453.451 207.581 445.155C208.827 435.27 209.392 425.658 216.802 418.155C222.216 412.68 228.404 406.994 235.367 401.099C245.596 392.443 254.742 382.884 262.122 372.025C265.454 367.115 269.928 357.322 268.845 351.171C268.105 346.977 265.076 343.86 261.202 342.078C259.728 341.408 258.225 341.297 256.571 340.983C256.159 340.905 256.155 340.812 256.559 340.703C261.72 339.276 268.175 340.668 270.464 345.94C272.317 350.204 273.056 354.433 271.944 359.128C270.693 364.39 269.002 369.511 266.87 374.489C264.65 379.674 261.115 383.402 257.864 387.654C254.491 392.064 250.262 395.833 246.866 400.464C246.795 400.56 246.758 400.677 246.761 400.796C246.764 400.915 246.807 401.03 246.882 401.122C246.958 401.214 247.062 401.279 247.178 401.305C247.295 401.332 247.416 401.319 247.524 401.268C249.953 400.167 251.555 397.662 252.959 396.334C261.219 388.499 270.138 379.854 273.72 368.705C274.216 367.173 274.21 365.524 274.373 363.893C274.384 363.8 274.423 363.732 274.489 363.689C274.598 363.619 274.651 363.649 274.647 363.777C274.616 367.35 274.27 370.889 273.61 374.396C272.27 381.515 263.701 385.371 260.876 391.796C260.861 391.828 260.857 391.863 260.863 391.898C260.869 391.932 260.886 391.964 260.911 391.989C260.936 392.014 260.968 392.031 261.003 392.038C261.039 392.045 261.075 392.042 261.109 392.029C273.062 387.142 279.528 370.878 277.565 358.866C277.082 355.936 277.827 353.018 277.379 349.959C277.351 349.784 277.408 349.751 277.548 349.86C278.146 350.315 278.664 350.847 279.103 351.456C286.489 361.72 293.078 370.313 291.033 384.008C288.691 399.678 284.728 414.934 279.144 429.777C278.227 432.219 277.107 434.563 275.783 436.808C275.328 437.584 275.161 438.402 275.282 439.26C275.313 439.478 275.435 439.614 275.649 439.668C277.062 440.029 278.132 439.563 278.858 438.27C286.524 424.598 289 411.375 292.996 393.887C294.084 389.118 294.841 384.012 295.268 378.567C296.264 365.845 286.553 354.812 279.138 345.718C278.035 344.367 276.59 343.903 274.804 344.326C274.711 344.35 274.614 344.353 274.519 344.334C274.424 344.316 274.335 344.278 274.256 344.221C273.487 343.685 273.243 342.625 272.765 342.043C268.338 336.666 259.88 334.237 255.045 340.546C255.027 340.57 255.003 340.589 254.975 340.6C254.946 340.611 254.916 340.613 254.886 340.606C254.857 340.599 254.83 340.584 254.809 340.562C254.789 340.539 254.775 340.511 254.771 340.482C254.52 339.165 256.087 337.971 256.821 337.103C257.548 336.237 258.122 335.501 258.546 334.895C267.709 321.713 273.348 308.216 279.08 293.181C279.418 292.301 279.54 291.433 279.65 290.513C279.674 290.318 279.783 290.208 279.977 290.181C282.936 289.746 285.291 288.386 287.043 286.103C293.293 277.965 298.513 266.501 297.662 255.981C297.324 251.728 296.55 248.064 297.814 244.406C300.522 236.571 303.633 228.922 305.107 220.295C305.911 215.6 304.122 212.227 299.742 210.177C299.517 210.068 299.497 209.934 299.684 209.775C299.812 209.662 299.965 209.629 300.144 209.676C300.23 209.697 300.32 209.698 300.406 209.676C300.492 209.655 300.572 209.613 300.639 209.553C302.485 207.94 303.586 204.427 304.117 202.651C309.46 188.398 311.823 173.656 311.206 158.425C311.171 157.685 310.897 156.852 310.85 156.247C310.738 154.821 310.849 154.804 311.183 156.194C312.814 162.986 313.985 170.085 314.695 177.491C314.967 180.33 314.816 184.874 314.241 191.122C314.225 191.297 314.272 191.317 314.381 191.181C315.942 189.206 316.513 180.946 316.437 178.085C316.134 167.134 313.769 152.396 307.699 142.994C307.676 142.957 307.666 142.912 307.671 142.869C307.676 142.825 307.696 142.784 307.727 142.753C307.757 142.722 307.798 142.703 307.84 142.699C307.883 142.696 307.926 142.707 307.961 142.732L310.559 144.45C310.655 144.515 310.766 144.551 310.881 144.555C310.996 144.56 311.11 144.532 311.21 144.475C311.31 144.418 311.392 144.334 311.446 144.233C311.501 144.132 311.527 144.018 311.52 143.903C311.468 142.79 310.32 142.126 309.837 141.27C309.15 140.039 308.398 138.849 307.583 137.699C307.579 137.693 307.576 137.686 307.575 137.678C307.574 137.671 307.575 137.663 307.577 137.656C307.579 137.649 307.583 137.642 307.588 137.636C307.593 137.631 307.599 137.626 307.606 137.623C307.66 137.604 307.715 137.586 307.769 137.571C307.851 137.544 307.917 137.565 307.967 137.635L310.915 142.103C310.94 142.14 310.978 142.167 311.022 142.18C311.065 142.194 311.112 142.192 311.153 142.176C311.195 142.159 311.229 142.129 311.251 142.09C311.272 142.052 311.279 142.007 311.27 141.963C309.557 131.996 306.342 121.959 302.928 112.965C295.996 94.6913 284.934 78.3631 270.75 65.1806C251.299 47.1107 224.689 36.701 198.651 36.1942C192.586 36.0718 186.068 35.7515 180.394 36.567C166.868 38.5126 153.72 42.9806 142.076 49.2427C137.27 51.8291 132.103 55.3767 127.262 58.6388C127.227 58.6621 127.192 58.668 127.157 58.6563C127.095 58.6369 127.035 58.6155 126.977 58.5922C126.962 58.5876 126.948 58.5789 126.937 58.5671C126.927 58.5553 126.92 58.5408 126.917 58.5252C126.914 58.5097 126.915 58.4936 126.92 58.4787C126.926 58.4639 126.935 58.4507 126.948 58.4408C130.151 55.7903 132.843 52.3243 135.866 50.0408C144.685 43.3534 155.258 38.9204 165.872 36.0777C178 32.8097 189.697 32.4718 202.14 33.2641C223.351 34.6155 242.685 41.2272 260.142 53.099C283.862 69.235 299.946 94.8194 308.019 121.994C309.297 126.293 310.903 133.08 312.837 142.353C313.004 143.157 313.567 143.573 314.526 143.6C314.709 143.604 314.798 143.515 314.794 143.332C313.786 110.355 295.565 78.4388 271.769 57.2466C251.439 39.1417 222.901 29.466 195.744 28.6854C187.355 28.4408 178.146 29.299 168.115 31.2602ZM82.7806 94.2136C70.9029 106.511 67.7107 129.206 68.7476 145.348C68.755 145.456 68.8024 145.559 68.8807 145.635C68.959 145.711 69.0626 145.756 69.1717 145.76C69.2808 145.764 69.3876 145.728 69.4717 145.658C69.5558 145.589 69.6112 145.491 69.6272 145.383C70.0389 142.52 70.3787 139.839 70.6466 137.338C71.9398 125.241 75.268 113.779 80.6311 102.951C82.3553 99.468 85.0932 95.3612 87.2078 91.4466C87.2292 91.4072 87.2392 91.3625 87.2364 91.3177C87.2336 91.2729 87.2183 91.2298 87.1921 91.1933C87.166 91.1568 87.1301 91.1284 87.0885 91.1114C87.047 91.0944 87.0015 91.0894 86.9573 91.0971C84.7728 91.4816 84.1379 92.8039 82.7806 94.2136ZM129.662 384.532C129.53 384.583 129.439 384.586 129.388 384.544C125.707 379.406 122.427 374.031 119.55 368.419C119.479 368.286 119.362 368.183 119.221 368.131C119.08 368.079 118.925 368.083 118.786 368.14C116.538 369.089 115.979 370.388 117.051 372.672C117.893 374.466 118.812 376.219 119.806 377.932C122.311 382.254 128.555 389.041 133.565 390.165C133.634 390.181 133.706 390.178 133.774 390.159C133.842 390.139 133.903 390.102 133.953 390.052C134.003 390.002 134.04 389.941 134.06 389.873C134.079 389.805 134.081 389.733 134.066 389.664C132.825 384.165 129.563 378.858 127.291 373.674C123.52 365.052 123.493 356.577 127.21 348.247C128.602 345.136 131.037 342.788 133.617 340.639C134.355 340.025 134.437 339.27 133.862 338.373C131.981 335.425 125.468 344.233 124.617 345.666C122.054 349.996 121.006 355.006 121.472 360.695C121.93 366.291 122.441 369.938 123.004 371.635C123.866 374.229 126.085 378.528 129.662 384.532ZM104.654 381.223C104.755 381.209 104.858 381.227 104.947 381.276C105.036 381.324 105.107 381.401 105.15 381.493C105.192 381.585 105.204 381.689 105.183 381.788C105.162 381.888 105.109 381.978 105.033 382.045C103.35 383.513 101.113 385.208 100.478 387.398C99.1456 391.988 98.701 396.684 99.1437 401.484C99.1592 401.662 99.2524 401.775 99.4233 401.821C101.445 402.392 102.184 401.181 102.383 399.334C102.662 396.639 103.039 393.804 103.513 390.829C103.516 390.766 103.544 390.706 103.591 390.664C103.638 390.621 103.7 390.599 103.763 390.602C103.826 390.605 103.886 390.633 103.929 390.68C103.971 390.727 103.993 390.789 103.99 390.852C105.097 405.983 110.252 419.753 119.456 432.165C121.911 435.474 124.394 437.899 126.907 439.441C127.707 439.93 128.423 439.676 129.056 438.678C129.142 438.542 129.165 438.394 129.126 438.235C128.924 437.466 128.588 436.821 128.118 436.301C115.355 422.221 106.186 401.769 107.45 382.342C107.474 382.012 107.456 381.656 107.398 381.276C106.687 376.575 116.13 365.891 119.584 362.891C119.728 362.767 119.796 362.61 119.788 362.419L119.707 360.276C119.705 360.227 119.693 360.18 119.672 360.136C119.651 360.092 119.621 360.053 119.585 360.021C119.548 359.989 119.506 359.964 119.46 359.949C119.414 359.934 119.365 359.928 119.317 359.932C117.884 360.033 116.695 360.565 115.751 361.528C110.532 366.858 105.097 372.672 103.355 380.285C103.334 380.38 103.336 380.479 103.363 380.573C103.389 380.666 103.439 380.752 103.507 380.821C103.825 381.155 104.208 381.289 104.654 381.223ZM-4.10874 436.633C-3.39806 437.146 -2.60776 437.363 -1.73786 437.285C-1.55533 437.27 -1.39223 437.204 -1.24854 437.087C-0.289316 436.318 0.363112 435.647 0.708743 435.072C12.0388 416.315 34.2214 402.707 53.701 393.794C58.8777 391.425 63.5554 389.666 67.734 388.517C76.7981 386.023 85.8311 383.421 94.833 380.711C97.2738 379.977 102.184 378.375 101.596 375.118C101.565 374.94 101.458 374.856 101.276 374.868C100.596 374.911 99.934 375.023 99.2893 375.206C90.7107 377.652 82.1185 380.066 73.5126 382.447C55.4369 387.445 39.3185 395.711 24.9651 405.171C16.4563 410.779 8.79806 417.703 1.99029 425.944C-0.99223 429.555 -3.00194 432.008 -4.37087 435.788C-4.42467 435.938 -4.42821 436.101 -4.38094 436.253C-4.33367 436.406 -4.23816 436.539 -4.10874 436.633ZM303.895 381.485C308.025 383.903 313.309 385.126 317.911 386.344C332.742 390.264 347.27 395.163 360.616 401.023C376.903 408.171 395.864 419.798 404.305 436.592C404.379 436.74 404.482 436.872 404.607 436.979C404.732 437.087 404.878 437.169 405.035 437.22C405.192 437.27 405.358 437.29 405.523 437.276C405.687 437.262 405.848 437.216 405.994 437.14L407.561 436.318C407.652 436.271 407.725 436.197 407.771 436.105C407.816 436.014 407.83 435.911 407.812 435.812C407.567 434.449 407.115 433.25 406.454 432.217C399.449 421.301 390.241 412.59 378.831 406.085C357.616 393.992 335.311 386.099 310.052 380.652C308.852 380.392 307.528 379.544 306.08 378.107C306.011 378.038 305.923 377.992 305.827 377.975C305.731 377.957 305.633 377.968 305.544 378.008C304.46 378.497 303.771 379.32 303.476 380.478C303.427 380.669 303.441 380.871 303.517 381.053C303.593 381.235 303.725 381.387 303.895 381.485ZM301.606 386.291C301.996 386.466 302.34 386.728 302.736 386.833C313.012 389.66 323.381 392.078 333.843 394.085C334.301 394.175 334.631 394.21 334.833 394.19C335.001 394.172 335.158 394.095 335.276 393.974C335.395 393.853 335.468 393.695 335.483 393.526C335.498 393.358 335.454 393.189 335.359 393.049C335.264 392.909 335.124 392.806 334.961 392.757C324.784 389.88 314.386 387.322 304.117 384.468C302.089 383.903 301.146 382.621 299.357 381.981C299.281 381.954 299.2 381.944 299.12 381.953C299.04 381.961 298.963 381.988 298.895 382.031C298.827 382.073 298.77 382.131 298.728 382.199C298.686 382.267 298.66 382.344 298.652 382.423C296.771 401.903 293.777 420.375 283.064 437.245C281.864 439.136 281.014 441.031 280.513 442.93C280.485 443.034 280.481 443.143 280.5 443.25C280.519 443.357 280.561 443.458 280.623 443.548C281.167 444.328 281.909 444.596 282.849 444.351C283.016 444.309 283.146 444.216 283.239 444.072C294.237 427.429 299.998 409.016 301.449 388.592C301.501 387.858 301.419 387.258 301.309 386.513C301.274 386.26 301.373 386.186 301.606 386.291ZM97.4835 384.107C96.1146 383.6 95.3282 383.915 94.035 384.107C85.7476 385.346 77.5049 387.577 69.3068 390.8C69.2326 390.822 69.1701 390.872 69.133 390.94C69.0958 391.007 69.0871 391.087 69.1087 391.161C69.1304 391.235 69.1806 391.298 69.2483 391.335C69.316 391.372 69.3957 391.381 69.4699 391.359C78.0408 389.728 86.6388 387.769 95.2641 385.482C96.1301 385.249 96.8816 384.856 97.5185 384.305C97.534 384.292 97.5458 384.275 97.5527 384.256C97.5596 384.236 97.5613 384.216 97.5578 384.196C97.5542 384.176 97.5455 384.157 97.5325 384.141C97.5195 384.126 97.5026 384.114 97.4835 384.107ZM230.817 416.443C235.571 419.93 240.39 423.318 245.276 426.608C254.969 433.138 263.666 440.81 273.889 446.588C274.06 446.685 274.227 446.678 274.39 446.565L276.313 445.225C276.353 445.197 276.385 445.16 276.408 445.117C276.431 445.073 276.443 445.025 276.444 444.976C276.444 444.927 276.433 444.879 276.412 444.835C276.39 444.791 276.358 444.753 276.318 444.724C273.728 442.81 271.13 440.909 268.524 439.021C265.553 436.872 259.198 431.868 254.247 428.658C252.142 427.295 249.915 425.763 247.565 424.062C242.303 420.252 236.643 416.955 230.584 414.171C230.493 414.129 230.393 414.107 230.292 414.106C230.191 414.104 230.091 414.125 229.998 414.165C229.905 414.205 229.822 414.264 229.753 414.338C229.685 414.413 229.632 414.5 229.6 414.596C229.268 415.575 230.177 415.971 230.817 416.443Z" fill="#F8F8F8"/>
<path d="M165.872 36.078C166.571 35.4411 167.411 34.9615 168.394 34.6391C168.58 34.5809 168.639 34.4585 168.569 34.2721C168.215 33.3362 168.064 32.3323 168.114 31.2605C178.145 29.2993 187.355 28.4411 195.743 28.6857C222.901 29.4663 251.439 39.142 271.769 57.2469C295.565 78.4391 313.786 110.356 314.794 143.332C314.798 143.515 314.708 143.604 314.526 143.6C313.567 143.573 313.004 143.158 312.837 142.354C310.903 133.08 309.297 126.293 308.019 121.994C299.945 94.8197 283.862 69.2352 260.141 53.0993C242.685 41.2275 223.351 34.6158 202.14 33.2644C189.697 32.4721 178 32.81 165.872 36.078Z" fill="#0A0C0F"/>
<path d="M168.115 31.2603C168.064 32.3321 168.216 33.336 168.569 34.2719C168.639 34.4583 168.581 34.5806 168.394 34.6389C167.412 34.9612 166.571 35.4408 165.872 36.0777C155.258 38.9204 144.685 43.3535 135.866 50.0408C132.843 52.3243 130.151 55.7903 126.948 58.4408C126.935 58.4508 126.926 58.4639 126.92 58.4788C126.915 58.4937 126.914 58.5097 126.917 58.5253C126.92 58.5409 126.927 58.5553 126.937 58.5671C126.948 58.5789 126.962 58.5876 126.977 58.5923C127.035 58.6156 127.095 58.6369 127.157 58.6564C127.192 58.668 127.227 58.6622 127.262 58.6389C132.103 55.3768 137.27 51.8292 142.076 49.2428C153.72 42.9806 166.868 38.5127 180.394 36.567C186.068 35.7515 192.586 36.0719 198.65 36.1942C224.689 36.701 251.299 47.1107 270.75 65.1806C284.934 78.3632 295.996 94.6913 302.928 112.965C306.342 121.959 309.557 131.996 311.27 141.963C311.279 142.007 311.272 142.052 311.251 142.09C311.229 142.129 311.195 142.159 311.153 142.176C311.112 142.192 311.065 142.194 311.022 142.181C310.978 142.167 310.94 142.14 310.915 142.103L307.967 137.635C307.917 137.565 307.851 137.544 307.769 137.571C307.715 137.586 307.66 137.604 307.606 137.623C307.599 137.626 307.593 137.631 307.588 137.636C307.583 137.642 307.579 137.649 307.577 137.656C307.575 137.663 307.574 137.671 307.575 137.678C307.576 137.686 307.579 137.693 307.583 137.699C308.398 138.849 309.15 140.039 309.837 141.27C310.32 142.126 311.468 142.79 311.52 143.903C311.527 144.018 311.501 144.132 311.446 144.233C311.392 144.334 311.309 144.418 311.21 144.475C311.11 144.532 310.996 144.56 310.881 144.555C310.766 144.551 310.655 144.515 310.559 144.451L307.961 142.732C307.926 142.707 307.883 142.696 307.84 142.7C307.798 142.703 307.757 142.722 307.727 142.753C307.696 142.784 307.676 142.825 307.671 142.869C307.666 142.913 307.676 142.957 307.699 142.994C313.769 152.396 316.134 167.134 316.437 178.085C316.513 180.946 315.942 189.206 314.381 191.181C314.272 191.317 314.225 191.297 314.241 191.122C314.816 184.874 314.967 180.33 314.695 177.491C313.984 170.085 312.814 162.986 311.183 156.194C310.849 154.804 310.738 154.821 310.85 156.247C310.897 156.852 311.171 157.685 311.206 158.425C311.823 173.656 309.46 188.398 304.117 202.651C303.6 202.258 302.942 202.256 302.142 202.645C301.972 202.727 301.78 202.748 301.6 202.703C300.431 202.412 299.369 202.654 298.414 203.431C298.338 203.492 298.244 203.527 298.146 203.53C297.61 203.542 297.157 203.396 296.788 203.093C296.614 202.95 296.466 202.973 296.346 203.163C296.245 203.33 296.186 203.509 296.171 203.699C295.891 201.074 294.501 199.468 292 198.882C289.953 198.404 286.167 197.73 280.641 196.86C278.404 196.511 276.039 195.416 273.901 194.396C264.808 190.068 256.769 189.427 247.297 188.804C244.973 188.652 242.27 189.13 239.678 188.845C237.54 188.606 236.031 189.095 233.986 189.276C227.567 189.835 221.311 191.437 215.171 193.33C214.483 193.54 213.882 193.468 213.365 193.115C213.316 193.081 213.275 193.036 213.247 192.984C213.218 192.931 213.203 192.873 213.201 192.813C213.199 192.754 213.212 192.694 213.237 192.64C213.263 192.587 213.3 192.539 213.348 192.503C214.606 191.548 215.796 190.538 216.918 189.474C219.383 187.144 221.567 186.73 224.864 186.369C229.117 185.899 232.559 185.651 235.192 185.623C236.124 185.612 237.115 185.291 237.977 185.256C250.536 184.761 264.79 185.315 276.388 190.755C277.596 191.318 280.419 192.726 284.858 194.979C285.06 195.08 285.15 195.018 285.126 194.792C284.827 192.004 284.619 189.21 284.503 186.41C284.019 174.835 279.394 163.039 274.029 152.903C271.478 148.074 268.047 143.629 264.627 139.231C263.963 138.375 263.229 137.839 262.384 137.204C262.291 137.134 262.21 137.117 262.14 137.152C262.016 137.21 262.006 137.28 262.111 137.361C263.687 138.643 264.724 140.268 265.221 142.237C265.237 142.294 265.236 142.354 265.22 142.411C265.204 142.468 265.172 142.52 265.129 142.561C265.086 142.602 265.032 142.631 264.973 142.644C264.915 142.658 264.854 142.656 264.796 142.639C258.272 140.643 252.15 137.74 246.429 133.93C244.6 132.707 243.115 131.92 241.262 131.181C241.226 131.165 241.186 131.164 241.149 131.177C241.113 131.189 241.082 131.215 241.063 131.249C241.044 131.283 241.039 131.323 241.047 131.361C241.056 131.399 241.079 131.432 241.111 131.454C245.608 134.596 250.274 137.258 255.109 139.441C257.322 140.443 264.755 143.216 265.553 145.266C265.572 145.313 265.577 145.363 265.569 145.413C265.56 145.462 265.537 145.508 265.504 145.546C265.47 145.584 265.427 145.612 265.378 145.628C265.329 145.643 265.277 145.645 265.227 145.633C262.501 144.957 259.858 144.037 257.299 142.872C252.278 140.583 247.821 139.243 241.821 137.92C229.348 135.171 217.066 131.722 204.977 127.575C201.709 126.456 198.452 126.177 195.219 124.755C189.67 122.32 183.971 120.303 178.122 118.703C173.573 117.456 168.691 116.728 163.885 116.018C163.855 116.013 163.823 116.016 163.794 116.027C163.764 116.038 163.739 116.057 163.719 116.081C163.699 116.105 163.685 116.134 163.68 116.164C163.674 116.195 163.677 116.227 163.687 116.256C163.998 117.084 164.559 117.722 165.371 118.173C170.113 120.79 175.074 123.557 180.254 126.474C180.362 126.535 180.446 126.631 180.492 126.746C180.539 126.861 180.545 126.988 180.511 127.106C180.476 127.225 180.403 127.327 180.302 127.398C180.202 127.468 180.08 127.502 179.957 127.493C173.707 127.12 167.159 126.206 161.148 125.251C151.625 123.74 142.396 121.109 133.46 117.357C133.285 117.287 133.192 117.346 133.181 117.532C133.093 118.779 133.594 119.53 134.823 119.95C145.783 123.724 157.041 126.052 168.598 126.934C171.452 127.15 174.231 127.761 177.056 128.117C178.633 128.318 180.087 128.812 181.419 129.596C182.006 129.942 182.084 130.381 181.652 130.913C181.365 131.266 180.963 131.392 180.447 131.291C175.798 130.377 169.897 130.289 166.478 129.917C157.122 128.885 143.579 127.901 135.569 122.612C135.05 122.268 134.643 121.569 134.171 121.115C133.887 120.843 133.808 120.893 133.932 121.266C135.819 126.922 137.247 131 137.159 136.482C137.155 136.695 137.05 136.775 136.845 136.72C134.674 136.134 132.965 135.186 131.718 133.878C128.196 130.192 124.583 126.489 120.878 122.769C119.899 122.338 118.99 122.223 118.151 122.425C117.437 122.091 116.932 121.55 116.637 120.8C116.551 120.586 116.478 120.59 116.416 120.812C109.699 143.641 103.303 167.285 99.9767 190.872C99.7981 192.15 99.7223 193.484 99.7495 194.874C98.8602 196.524 97.2796 197.163 95.0078 196.79C94.8453 196.764 94.6797 196.791 94.5359 196.866C93.0252 197.651 91.7456 198.72 90.6971 200.076C90.6327 200.157 90.5442 200.216 90.4438 200.244C90.3435 200.272 90.2365 200.268 90.1379 200.233L88.4078 199.575C88.1592 198.169 87.7029 197.573 87.0388 197.786L85.7631 197.379C85.6155 197.332 85.5087 197.239 85.4427 197.099C84.767 195.637 83.1301 196.814 82.4718 195.247C82.0796 194.318 81.6971 193.392 81.3243 192.468C80.299 189.946 80.5262 186.911 81.0505 184.33C80.701 178.889 79.5592 173.28 79.3204 168.188C79.1301 164.216 78.9495 160.21 78.7786 156.171C78.7746 156.121 78.7527 156.074 78.7171 156.039C78.6815 156.004 78.6344 155.982 78.5844 155.979C78.5343 155.975 78.4847 155.99 78.4445 156.02C78.4043 156.05 78.3761 156.093 78.3651 156.142C78.3223 156.371 78.3359 156.654 78.4058 156.992C77.9087 156.379 77.8447 155.752 78.2136 155.111C78.2502 155.044 78.2675 154.969 78.2634 154.894C78.2592 154.819 78.2339 154.746 78.1903 154.685C75.4874 150.928 75.9942 147.759 76.0233 143.559C76.0311 142.693 75.767 142.198 75.2311 142.074L75.3709 138.887C75.3748 138.767 75.3165 138.715 75.1961 138.73C75.1456 138.738 75.0971 138.767 75.0505 138.818C75.0194 138.856 75 138.905 74.9922 138.963C74.833 140.843 74.3398 142.586 73.5126 144.194C73.4966 144.234 73.4661 144.266 73.4272 144.284C73.3884 144.302 73.3441 144.305 73.3034 144.292C73.2627 144.278 73.2285 144.25 73.2079 144.212C73.1873 144.175 73.1817 144.131 73.1922 144.089C75.2932 130.078 78.6311 116.361 83.2058 102.94C84.8427 98.1457 87.1204 93.8583 91.0757 90.9981C91.2349 90.8816 91.2913 90.7263 91.2447 90.5321C90.8796 88.9515 90.701 87.936 90.7087 87.4855C90.7495 84.7651 94.9262 82.5865 97 81.5088C97.0924 81.4623 97.165 81.3842 97.2046 81.2886C97.2441 81.1931 97.248 81.0865 97.2155 80.9883C97.183 80.8901 97.1163 80.8069 97.0276 80.7538C96.9388 80.7007 96.8339 80.6813 96.732 80.6991C93.9864 81.134 91.5553 82.2408 89.4388 84.0195C89.2874 84.1476 89.1126 84.2214 88.9146 84.2408C86.1184 84.5379 86.4796 86.9554 86.5204 88.9535C86.5237 89.0686 86.4826 89.1806 86.4056 89.2663C86.3286 89.352 86.2216 89.4047 86.1068 89.4136L84.4175 89.5593C84.1379 89.5865 83.9825 89.4603 83.9515 89.1806C83.066 81.6311 90.5107 77.6117 96.9592 76.936C97.0396 76.9268 97.1213 76.9386 97.1967 76.9702C97.2721 77.0018 97.3387 77.0521 97.3903 77.1166L98.6718 78.7185C98.7103 78.7673 98.7624 78.8036 98.8215 78.8228C98.8807 78.842 98.9441 78.8433 99.0039 78.8264C99.0637 78.8096 99.1173 78.7754 99.1577 78.7282C99.1981 78.681 99.2236 78.6229 99.2311 78.5612C99.6194 75.6059 100.21 72.703 101.002 69.8525C101.771 67.0738 103.536 67.4933 105.621 66.9573C105.672 66.9535 105.724 66.9476 105.779 66.9399C106.647 68.0641 107.491 67.4467 108.208 66.5787C111.392 62.6913 115.466 58.736 120.429 54.7127C122.282 53.2098 124.023 52.1768 125.654 51.6136C125.707 51.5975 125.763 51.5981 125.815 51.6155C125.867 51.6328 125.912 51.666 125.944 51.7103C125.976 51.7546 125.994 51.8079 125.994 51.8627C125.994 51.9174 125.977 51.9709 125.946 52.0156C124.128 54.4622 121.181 56.6641 119.596 58.2195C115.584 62.1651 111.703 66.2311 107.951 70.4175C106.693 71.8214 105.779 73.703 105.808 75.4214C105.831 76.536 106.144 76.6253 106.746 75.6894C111.196 68.7923 116.287 62.67 122.019 57.3224C126.837 52.8311 131.217 48.1826 136.903 44.303C146.084 38.0467 157.297 33.835 168.115 31.2603ZM103.885 71.974C103.891 71.9328 103.88 71.8908 103.855 71.8574C103.83 71.824 103.793 71.8019 103.752 71.796L103.233 71.7212C103.212 71.7182 103.192 71.7193 103.172 71.7244C103.152 71.7295 103.133 71.7385 103.116 71.7509C103.1 71.7633 103.086 71.7788 103.075 71.7966C103.065 71.8143 103.058 71.834 103.055 71.8544L101.602 81.9329C101.596 81.9742 101.607 82.0161 101.632 82.0495C101.657 82.0829 101.694 82.105 101.736 82.1109L102.255 82.1857C102.275 82.1887 102.296 82.1876 102.316 82.1825C102.336 82.1774 102.355 82.1684 102.371 82.156C102.388 82.1436 102.402 82.1281 102.412 82.1104C102.423 82.0926 102.43 82.0729 102.433 82.0525L103.885 71.974ZM118.717 110.216C123.012 119.245 128.584 127.402 135.435 134.687C135.451 134.708 135.475 134.722 135.501 134.725C135.527 134.728 135.554 134.721 135.575 134.705C135.596 134.689 135.609 134.665 135.612 134.639C135.616 134.612 135.608 134.586 135.592 134.565C133.344 131.023 131.707 126.742 128.922 123.573C125.105 119.223 121.788 114.518 118.973 109.458C118.954 109.426 118.927 109.399 118.894 109.38C118.862 109.361 118.825 109.351 118.788 109.35C118.751 109.349 118.715 109.359 118.683 109.377C118.651 109.395 118.624 109.421 118.606 109.452C118.47 109.67 118.458 109.852 118.571 110C118.656 110.117 118.705 110.188 118.717 110.216ZM168.994 123.776C169.013 123.739 169.017 123.696 169.004 123.656C168.991 123.616 168.963 123.583 168.926 123.564L160.106 119.011C160.069 118.992 160.026 118.988 159.986 119.001C159.946 119.014 159.913 119.042 159.894 119.079L159.814 119.234C159.795 119.271 159.791 119.314 159.804 119.354C159.816 119.394 159.844 119.427 159.881 119.446L168.702 123.999C168.739 124.018 168.782 124.021 168.822 124.009C168.862 123.996 168.895 123.968 168.914 123.931L168.994 123.776ZM203.317 121.697L202.967 122.676C202.954 122.712 202.956 122.752 202.972 122.787C202.988 122.822 203.018 122.849 203.054 122.862L203.142 122.891C212.295 126.15 221.095 129.219 227.614 131.425C234.133 133.631 237.838 134.793 237.918 134.658L237.971 134.507C238.007 134.438 237.146 134.051 235.436 133.367C233.727 132.684 231.204 131.717 228.01 130.522C224.817 129.327 221.016 127.928 216.826 126.405C212.635 124.882 208.138 123.264 203.59 121.645L203.503 121.61C203.467 121.597 203.427 121.598 203.392 121.615C203.357 121.631 203.33 121.661 203.317 121.697ZM275.071 148.467C275.152 148.414 275.024 148.052 274.714 147.461C274.405 146.871 273.939 146.1 273.42 145.319C272.901 144.538 272.371 143.811 271.947 143.296C271.523 142.782 271.239 142.523 271.158 142.577C271.077 142.631 271.205 142.993 271.515 143.584C271.825 144.174 272.29 144.944 272.809 145.725C273.328 146.507 273.858 147.234 274.282 147.748C274.706 148.263 274.99 148.521 275.071 148.467ZM279.179 154.592L278.619 154.79C278.61 154.794 278.602 154.799 278.595 154.805C278.588 154.812 278.583 154.819 278.579 154.828C278.575 154.837 278.573 154.846 278.573 154.856C278.573 154.865 278.575 154.875 278.579 154.884L278.619 154.994C280.777 160.987 282.88 166.723 284.467 170.947C286.055 175.17 286.998 177.536 287.089 177.526L287.142 177.503C287.212 177.434 286.427 175.003 284.959 170.74C283.492 166.477 281.46 160.729 279.307 154.75L279.266 154.633C279.259 154.616 279.247 154.603 279.23 154.595C279.214 154.588 279.196 154.587 279.179 154.592Z" fill="#141318"/>
<path d="M105.778 66.9399C105.724 66.9476 105.672 66.9535 105.621 66.9573L105.365 61.8544C105.362 61.8011 105.372 61.748 105.395 61.6996C105.417 61.6512 105.451 61.609 105.494 61.5768C105.536 61.5446 105.586 61.5234 105.639 61.5149C105.691 61.5064 105.745 61.511 105.796 61.5282L106.413 61.7437C106.67 61.8331 106.771 62.0098 106.716 62.2738L105.778 66.9399Z" fill="#0A0C0F"/>
<path d="M103.752 71.7959L103.233 71.7212C103.147 71.7088 103.067 71.7684 103.055 71.8544L101.602 81.9328C101.59 82.0188 101.65 82.0985 101.736 82.1109L102.255 82.1857C102.341 82.1981 102.42 82.1384 102.433 82.0525L103.885 71.974C103.897 71.8881 103.838 71.8083 103.752 71.7959Z" fill="#F8F8F8"/>
<path d="M82.7806 94.2138C84.1379 92.804 84.7729 91.4817 86.9573 91.0972C87.0016 91.0896 87.047 91.0946 87.0886 91.1116C87.1301 91.1286 87.166 91.157 87.1922 91.1935C87.2183 91.2299 87.2337 91.2731 87.2364 91.3179C87.2392 91.3627 87.2293 91.4073 87.2078 91.4468C85.0933 95.3613 82.3554 99.4681 80.6311 102.952C75.268 113.779 71.9399 125.241 70.6467 137.338C70.3787 139.839 70.0389 142.521 69.6272 145.383C69.6112 145.491 69.5558 145.589 69.4717 145.659C69.3877 145.728 69.2808 145.764 69.1717 145.76C69.0626 145.756 68.959 145.711 68.8807 145.635C68.8024 145.559 68.755 145.457 68.7476 145.348C67.7107 129.206 70.903 106.511 82.7806 94.2138Z" fill="#0A0C0F"/>
<path d="M118.571 110C118.458 109.853 118.47 109.67 118.606 109.453C118.624 109.421 118.65 109.395 118.682 109.377C118.714 109.359 118.751 109.35 118.788 109.35C118.825 109.351 118.862 109.361 118.894 109.38C118.926 109.399 118.954 109.426 118.973 109.458C121.788 114.519 125.105 119.223 128.922 123.573C131.707 126.742 133.344 131.023 135.592 134.565C135.608 134.586 135.616 134.612 135.612 134.639C135.609 134.665 135.595 134.689 135.575 134.705C135.554 134.721 135.527 134.728 135.501 134.725C135.475 134.722 135.451 134.708 135.435 134.688C128.584 127.402 123.011 119.245 118.716 110.216C118.705 110.188 118.656 110.117 118.571 110Z" fill="#F8F8F8"/>
<path d="M296.171 203.699L296.835 208.86C296.848 208.956 296.842 209.053 296.817 209.146C296.792 209.24 296.748 209.326 296.689 209.402L295 211.516C294.969 211.554 294.927 211.581 294.879 211.592C294.832 211.603 294.782 211.599 294.738 211.579C294.693 211.559 294.657 211.525 294.633 211.482C294.61 211.439 294.602 211.39 294.61 211.342C295.134 208.079 294.779 201.701 290.777 200.489C286.936 199.332 281.08 197.887 273.208 196.155C269.235 195.281 263.538 193.411 258.971 192.66C247.266 190.726 235.579 190.744 223.909 192.712C219.303 193.485 216.101 194.276 214.303 195.083C209.579 197.198 204.546 202.109 204.546 207.736C204.546 210.538 203.34 213.392 202.897 216.229C202.862 216.466 202.767 216.493 202.612 216.311C200.182 213.444 198.994 210.666 194.771 210.2C190.693 209.745 187.25 211.155 184.443 214.429C184.38 214.504 184.296 214.558 184.203 214.586C184.109 214.614 184.01 214.614 183.916 214.587C183.822 214.559 183.737 214.505 183.673 214.43C183.608 214.356 183.566 214.264 183.551 214.167C183.278 212.326 184.355 210.777 185.549 209.279C189.412 204.421 198.318 205.988 202.163 210.095C202.262 210.202 202.387 210.281 202.525 210.326C202.663 210.37 202.811 210.379 202.954 210.35C203.096 210.321 203.229 210.257 203.339 210.162C203.45 210.067 203.534 209.946 203.584 209.81C205.309 205.103 198.546 202.877 195.155 202.773C190.961 202.644 185.194 202.685 182.887 206.92C182.771 207.13 182.678 207.122 182.608 206.897C177.458 190.784 157.635 191.454 143.893 191.559C135.219 191.629 125.992 191.961 117.726 194.879C111.825 196.959 107.445 197.67 102.045 198.567C95.3047 199.685 90.8426 201.584 91.6523 209.338C91.6717 209.54 91.5805 209.654 91.3785 209.681C91.2853 209.697 91.1979 209.683 91.1164 209.641C90.9882 209.578 90.8989 209.444 90.8484 209.239C90.6038 208.233 90.7125 207.25 91.1746 206.291C91.2384 206.16 91.2509 206.008 91.2096 205.866L90.2834 202.918C90.2174 202.712 90.2465 202.522 90.3708 202.347C93.7261 197.565 99.062 197.524 105.476 196.726C108.446 196.353 110.532 195.276 113.171 194.111C121.413 190.476 130.984 188.536 139.478 188.879C145.221 189.118 151.612 189.118 156.749 189.8C161.973 190.491 167.089 191.699 172.099 193.423C172.425 193.534 173.246 193.575 173.567 193.604C173.68 193.613 173.793 193.588 173.893 193.533C173.992 193.479 174.074 193.396 174.127 193.296C174.18 193.196 174.203 193.082 174.192 192.969C174.182 192.856 174.139 192.749 174.068 192.66C171.056 188.955 167.788 187.446 162.854 186.625C151.076 184.656 137.876 185.035 126.347 186.06C119.025 186.712 111.254 190.633 105.114 193.732C104.916 193.833 104.87 193.784 104.975 193.586C105.534 192.542 105.913 191.578 106.111 190.697C107.975 182.355 109.85 174.019 111.738 165.689C114.144 155.052 116.095 144.229 118.349 133.528L119.881 126.235C119.703 126.262 119.658 126.062 119.747 125.635C119.798 125.611 119.85 125.59 119.905 125.571L130.513 137.885C130.625 138.017 130.689 137.996 130.705 137.821C130.825 136.408 130.615 135.353 130.076 134.658C127.066 130.767 124 126.804 120.878 122.769C124.582 126.489 128.196 130.192 131.718 133.878C132.965 135.186 134.674 136.134 136.845 136.72C137.05 136.775 137.155 136.695 137.159 136.481C137.246 131 135.819 126.922 133.932 121.266C133.808 120.893 133.887 120.843 134.171 121.114C134.643 121.569 135.05 122.268 135.569 122.611C143.579 127.901 157.122 128.885 166.478 129.916C169.897 130.289 175.798 130.377 180.446 131.291C180.963 131.392 181.365 131.266 181.652 130.912C182.083 130.38 182.006 129.942 181.419 129.596C180.087 128.811 178.633 128.318 177.056 128.116C174.231 127.761 171.452 127.149 168.598 126.934C157.041 126.052 145.782 123.724 134.823 119.949C133.594 119.53 133.093 118.778 133.18 117.532C133.192 117.345 133.285 117.287 133.46 117.357C142.396 121.109 151.625 123.74 161.147 125.25C167.159 126.206 173.707 127.12 179.957 127.493C180.08 127.501 180.202 127.468 180.302 127.398C180.403 127.327 180.476 127.224 180.511 127.106C180.545 126.988 180.539 126.861 180.492 126.746C180.445 126.631 180.362 126.535 180.254 126.474C175.074 123.557 170.113 120.79 165.371 118.173C164.559 117.722 163.998 117.083 163.687 116.256C163.677 116.227 163.674 116.195 163.68 116.164C163.685 116.133 163.698 116.105 163.718 116.08C163.738 116.056 163.764 116.038 163.794 116.027C163.823 116.016 163.854 116.012 163.885 116.017C168.691 116.728 173.573 117.456 178.122 118.703C183.971 120.303 189.67 122.32 195.219 124.755C198.452 126.177 201.709 126.456 204.977 127.575C217.066 131.722 229.347 135.171 241.821 137.92C247.821 139.243 252.278 140.582 257.299 142.872C259.858 144.037 262.501 144.957 265.227 145.633C265.277 145.645 265.329 145.643 265.378 145.627C265.426 145.612 265.47 145.584 265.504 145.546C265.537 145.508 265.56 145.462 265.569 145.413C265.577 145.363 265.572 145.312 265.553 145.266C264.755 143.215 257.322 140.443 255.109 139.441C250.274 137.258 245.608 134.596 241.111 131.454C241.079 131.432 241.056 131.399 241.047 131.361C241.038 131.323 241.044 131.283 241.063 131.249C241.082 131.215 241.112 131.189 241.149 131.176C241.186 131.164 241.226 131.165 241.262 131.18C243.114 131.92 244.6 132.707 246.429 133.93C252.149 137.74 258.272 140.643 264.796 142.639C264.854 142.656 264.915 142.658 264.973 142.644C265.032 142.63 265.086 142.602 265.129 142.561C265.172 142.52 265.204 142.468 265.22 142.411C265.236 142.354 265.237 142.294 265.221 142.237C264.724 140.268 263.687 138.643 262.111 137.361C262.006 137.279 262.015 137.21 262.14 137.151C262.21 137.116 262.291 137.134 262.384 137.204C263.229 137.839 263.963 138.375 264.627 139.231C268.047 143.629 271.478 148.074 274.029 152.903C279.394 163.039 284.019 174.835 284.503 186.41C284.619 189.21 284.827 192.004 285.126 194.792C285.149 195.017 285.06 195.079 284.858 194.978C280.419 192.726 277.596 191.318 276.388 190.755C264.79 185.314 250.536 184.761 237.977 185.256C237.114 185.291 236.124 185.611 235.192 185.623C232.559 185.65 229.116 185.899 224.864 186.369C221.567 186.73 219.382 187.144 216.918 189.474C215.796 190.538 214.606 191.547 213.347 192.503C213.3 192.539 213.262 192.586 213.237 192.64C213.211 192.694 213.199 192.753 213.201 192.813C213.202 192.873 213.218 192.931 213.247 192.983C213.275 193.036 213.316 193.081 213.365 193.114C213.881 193.468 214.483 193.54 215.171 193.33C221.311 191.437 227.567 189.835 233.986 189.276C236.031 189.095 237.54 188.606 239.678 188.844C242.27 189.13 244.973 188.652 247.297 188.804C256.769 189.427 264.808 190.068 273.901 194.396C276.039 195.415 278.404 196.511 280.641 196.86C286.167 197.73 289.953 198.404 292 198.881C294.501 199.468 295.891 201.074 296.171 203.699ZM165.761 117.468C176.683 122.693 187.18 127.213 199.099 129.753C199.136 129.762 199.175 129.762 199.213 129.754C199.25 129.746 199.285 129.731 199.316 129.708C199.347 129.685 199.373 129.656 199.392 129.623C199.411 129.59 199.422 129.553 199.425 129.514L199.553 128.186C199.562 128.104 199.542 128.021 199.497 127.953C199.453 127.884 199.386 127.832 199.309 127.808C188.031 124.149 177.487 119.798 165.854 117.211C165.821 117.204 165.785 117.209 165.754 117.226C165.723 117.242 165.7 117.27 165.688 117.302C165.676 117.334 165.677 117.369 165.691 117.4C165.704 117.43 165.729 117.455 165.761 117.468ZM257.467 147.066C257.488 147.066 257.51 147.047 257.531 147.01C257.551 146.972 257.571 146.917 257.588 146.847C257.604 146.777 257.618 146.694 257.629 146.602C257.639 146.51 257.646 146.412 257.648 146.313C257.653 146.112 257.641 145.919 257.614 145.776C257.587 145.633 257.547 145.553 257.504 145.552C257.482 145.551 257.461 145.57 257.44 145.608C257.419 145.645 257.4 145.7 257.383 145.77C257.366 145.84 257.352 145.924 257.342 146.015C257.331 146.107 257.325 146.205 257.322 146.305C257.317 146.505 257.33 146.698 257.357 146.841C257.384 146.984 257.424 147.065 257.467 147.066Z" fill="#F8F8F8"/>
<path d="M199.099 129.753C187.181 127.213 176.684 122.693 165.761 117.468C165.73 117.455 165.705 117.43 165.691 117.4C165.678 117.369 165.677 117.334 165.688 117.302C165.7 117.27 165.724 117.242 165.754 117.226C165.785 117.209 165.821 117.204 165.855 117.211C177.488 119.798 188.031 124.149 199.309 127.808C199.386 127.832 199.453 127.884 199.498 127.953C199.542 128.021 199.562 128.104 199.554 128.186L199.425 129.514C199.422 129.553 199.411 129.59 199.392 129.623C199.373 129.656 199.348 129.685 199.317 129.708C199.286 129.731 199.25 129.746 199.213 129.754C199.175 129.762 199.137 129.762 199.099 129.753Z" fill="#0A0C0F"/>
<path d="M168.926 123.564L160.106 119.011C160.028 118.971 159.934 119.002 159.894 119.079L159.814 119.234C159.774 119.311 159.804 119.406 159.881 119.446L168.702 123.999C168.779 124.038 168.874 124.008 168.914 123.931L168.994 123.776C169.034 123.698 169.003 123.604 168.926 123.564Z" fill="#F8F8F8"/>
<path d="M118.151 122.425C117.301 125.285 116.351 128.151 115.687 131.023C110.86 151.986 106.373 173.025 102.225 194.14C102.183 194.346 102.058 194.466 101.852 194.501L99.7495 194.874C99.7223 193.483 99.7981 192.149 99.9767 190.872C103.303 167.285 109.699 143.641 116.416 120.812C116.478 120.59 116.551 120.586 116.637 120.8C116.932 121.549 117.437 122.091 118.151 122.425Z" fill="#F8F8F8"/>
<path d="M203.316 121.697C203.329 121.661 203.356 121.631 203.391 121.615C203.426 121.598 203.466 121.597 203.503 121.61L203.59 121.645C208.137 123.264 212.635 124.881 216.825 126.405C221.016 127.928 224.816 129.327 228.01 130.522C231.203 131.717 233.727 132.684 235.436 133.367C237.145 134.051 238.007 134.438 237.971 134.507L237.918 134.658C237.838 134.793 234.132 133.631 227.613 131.425C221.095 129.219 212.294 126.15 203.141 122.891L203.054 122.862C203.018 122.849 202.988 122.822 202.972 122.787C202.955 122.752 202.954 122.712 202.967 122.676L203.316 121.697Z" fill="#F8F8F8"/>
<path d="M120.878 122.769C124 126.804 127.066 130.767 130.076 134.658C130.616 135.353 130.825 136.408 130.705 137.821C130.689 137.996 130.625 138.017 130.513 137.885L119.905 125.571C119.905 125.043 119.79 124.724 119.561 124.616C119.39 124.534 119.322 124.586 119.357 124.773C119.412 125.08 119.542 125.367 119.748 125.635C119.658 126.062 119.703 126.262 119.882 126.235L119.649 126.439C119.501 126.567 119.338 126.594 119.159 126.52C118.705 126.334 118.445 126.464 118.379 126.911C118.118 128.65 117.862 130.392 117.61 132.136C117.597 132.219 117.608 132.303 117.639 132.38C117.671 132.457 117.723 132.524 117.79 132.573C118.097 132.794 118.283 133.113 118.35 133.528C116.095 144.229 114.144 155.052 111.738 165.689C109.85 174.019 107.975 182.355 106.111 190.697C105.913 191.579 105.534 192.542 104.975 193.586C104.87 193.784 104.916 193.833 105.115 193.732C111.254 190.633 119.025 186.713 126.348 186.06C137.876 185.035 151.076 184.656 162.854 186.625C167.788 187.447 171.056 188.955 174.068 192.66C174.139 192.749 174.182 192.856 174.192 192.969C174.203 193.082 174.18 193.196 174.127 193.296C174.074 193.396 173.992 193.479 173.893 193.534C173.793 193.588 173.68 193.613 173.567 193.604C173.247 193.575 172.425 193.534 172.099 193.423C167.089 191.699 161.973 190.491 156.75 189.8C151.612 189.118 145.221 189.118 139.478 188.88C130.984 188.536 121.414 190.476 113.171 194.111C110.532 195.276 108.447 196.353 105.476 196.726C99.0621 197.524 93.7262 197.565 90.3709 202.348C90.2466 202.522 90.2175 202.713 90.2835 202.918L91.2097 205.866C91.251 206.008 91.2385 206.16 91.1747 206.291C90.7126 207.25 90.6039 208.233 90.8485 209.239C90.899 209.445 90.9883 209.579 91.1165 209.641C91.198 209.684 91.2854 209.697 91.3786 209.682C91.5806 209.654 91.6718 209.54 91.6524 209.338C90.8427 201.584 95.3048 199.685 102.045 198.567C107.445 197.67 111.825 196.959 117.726 194.88C125.992 191.961 135.219 191.629 143.893 191.559C157.635 191.454 177.458 190.784 182.608 206.897C182.678 207.122 182.771 207.13 182.887 206.92C185.194 202.685 190.961 202.645 195.155 202.773C198.546 202.878 205.309 205.103 203.584 209.81C203.534 209.946 203.45 210.068 203.34 210.162C203.229 210.257 203.096 210.322 202.954 210.35C202.811 210.379 202.664 210.37 202.525 210.326C202.387 210.281 202.262 210.202 202.163 210.095C198.318 205.988 189.412 204.421 185.55 209.28C184.355 210.777 183.278 212.326 183.551 214.167C183.566 214.264 183.608 214.356 183.673 214.43C183.737 214.505 183.822 214.559 183.916 214.587C184.01 214.614 184.11 214.614 184.203 214.586C184.297 214.558 184.38 214.504 184.443 214.429C187.25 211.155 190.693 209.746 194.771 210.2C198.994 210.666 200.183 213.445 202.612 216.311C202.767 216.493 202.862 216.466 202.897 216.229C203.34 213.392 204.546 210.538 204.546 207.736C204.546 202.109 209.579 197.198 214.303 195.083C216.101 194.276 219.303 193.485 223.909 192.713C235.579 190.744 247.266 190.726 258.971 192.66C263.538 193.412 269.235 195.282 273.208 196.155C281.08 197.887 286.936 199.332 290.777 200.489C294.779 201.701 295.134 208.08 294.61 211.342C294.602 211.39 294.61 211.439 294.634 211.482C294.657 211.525 294.693 211.559 294.738 211.579C294.782 211.599 294.832 211.603 294.879 211.592C294.927 211.581 294.969 211.554 295 211.517L296.689 209.402C296.748 209.327 296.792 209.24 296.817 209.147C296.842 209.054 296.848 208.956 296.835 208.86L296.171 203.699C296.186 203.509 296.245 203.33 296.346 203.163C296.466 202.973 296.614 202.95 296.788 203.093C297.157 203.396 297.61 203.542 298.146 203.53C298.244 203.526 298.338 203.492 298.414 203.431C299.369 202.654 300.431 202.412 301.6 202.703C301.78 202.748 301.972 202.727 302.142 202.645C302.942 202.256 303.6 202.258 304.116 202.65C303.586 204.427 302.485 207.94 300.639 209.553C300.572 209.613 300.492 209.655 300.406 209.676C300.32 209.698 300.229 209.697 300.144 209.676C299.965 209.629 299.812 209.662 299.683 209.775C299.497 209.934 299.516 210.068 299.742 210.177C304.122 212.227 305.911 215.6 305.107 220.295C303.633 228.922 300.522 236.571 297.814 244.406C296.549 248.064 297.324 251.728 297.662 255.981C298.513 266.501 293.293 277.965 287.043 286.103C285.291 288.386 282.936 289.746 279.977 290.181C279.783 290.208 279.674 290.318 279.65 290.513C279.54 291.433 279.417 292.301 279.08 293.181C273.348 308.216 267.709 321.713 258.546 334.895C258.122 335.501 257.548 336.237 256.821 337.103C256.087 337.971 254.52 339.165 254.771 340.482C254.775 340.511 254.789 340.539 254.809 340.562C254.83 340.584 254.857 340.599 254.886 340.606C254.916 340.613 254.946 340.611 254.975 340.6C255.003 340.589 255.027 340.57 255.045 340.546C259.88 334.237 268.338 336.666 272.765 342.043C273.243 342.625 273.487 343.685 274.256 344.221C274.335 344.278 274.424 344.316 274.519 344.334C274.614 344.353 274.711 344.35 274.804 344.326C276.59 343.903 278.035 344.367 279.138 345.718C286.553 354.812 296.264 365.845 295.268 378.567C294.841 384.012 294.084 389.118 292.996 393.887C289 411.375 286.524 424.598 278.858 438.27C278.132 439.563 277.062 440.029 275.649 439.668C275.435 439.614 275.313 439.478 275.282 439.26C275.161 438.402 275.328 437.584 275.783 436.808C277.107 434.563 278.227 432.219 279.144 429.777C284.728 414.934 288.691 399.678 291.033 384.008C293.078 370.313 286.489 361.72 279.103 351.456C278.664 350.847 278.146 350.315 277.548 349.86C277.408 349.751 277.351 349.784 277.379 349.959C277.827 353.017 277.082 355.936 277.565 358.866C279.528 370.878 273.062 387.142 261.109 392.029C261.075 392.042 261.039 392.045 261.003 392.038C260.968 392.031 260.936 392.014 260.911 391.989C260.886 391.964 260.869 391.932 260.863 391.898C260.857 391.863 260.861 391.828 260.876 391.796C263.701 385.371 272.27 381.515 273.61 374.396C274.27 370.889 274.616 367.35 274.647 363.777C274.65 363.649 274.598 363.619 274.489 363.689C274.423 363.732 274.384 363.8 274.373 363.893C274.21 365.524 274.216 367.173 273.72 368.705C270.138 379.854 261.219 388.499 252.959 396.334C251.555 397.662 249.953 400.167 247.524 401.268C247.416 401.319 247.295 401.332 247.178 401.305C247.062 401.279 246.958 401.214 246.882 401.122C246.807 401.03 246.764 400.915 246.761 400.796C246.758 400.677 246.795 400.56 246.866 400.464C250.262 395.833 254.491 392.064 257.864 387.654C261.115 383.402 264.65 379.674 266.87 374.489C269.002 369.511 270.693 364.39 271.944 359.128C273.056 354.433 272.317 350.204 270.464 345.94C268.175 340.668 261.72 339.276 256.559 340.703C256.155 340.812 256.159 340.905 256.571 340.983C258.225 341.297 259.728 341.408 261.202 342.078C265.076 343.86 268.105 346.977 268.845 351.171C269.928 357.322 265.454 367.115 262.122 372.025C254.742 382.884 245.596 392.443 235.367 401.099C228.404 406.994 222.216 412.68 216.802 418.155C209.392 425.658 208.827 435.27 207.581 445.155C206.538 453.45 207.097 461.344 207.371 470.553C207.511 475.429 206.986 480.847 206.969 485.093C206.95 489.839 206.909 494.584 206.847 499.33C206.771 504.963 207.249 511.359 207.202 517.388C207.198 517.699 207.214 517.934 207.249 518.093C207.266 518.167 207.309 518.233 207.369 518.279C207.43 518.325 207.505 518.348 207.581 518.345C207.657 518.341 207.73 518.312 207.786 518.26C207.842 518.209 207.879 518.14 207.889 518.064C209.016 508.386 209.751 498.755 210.097 489.171C210.487 478.33 210.155 465.375 210.738 456.078C211.289 447.332 213.085 438.109 216.126 428.408C217.181 425.035 217.955 422.157 220.414 419.821C223.373 417.006 226.951 416.707 231.149 418.924C235.093 421.004 238.291 423.217 241.816 426.416C251.753 435.439 261.621 444.456 272.293 452.629C273.066 453.223 273.775 453.885 274.419 454.616C274.559 454.775 274.588 454.953 274.507 455.151C274.219 455.843 273.73 456.328 273.039 456.608C272.864 456.682 272.693 456.67 272.526 456.573C256.198 446.891 244.647 431.687 228.511 421.854C225.769 420.188 223.575 420.557 221.928 422.961C220.55 424.984 219.515 427.384 218.823 430.161C216.219 440.647 214.256 451.458 213.849 462.34C213.421 473.645 213.208 484.955 213.208 496.272C213.208 507.864 211.816 518.583 208.868 529.703C208.297 531.843 207.493 533.94 206.456 535.994C206.427 536.051 206.382 536.099 206.326 536.131C206.271 536.164 206.207 536.18 206.143 536.177C206.079 536.175 206.017 536.154 205.964 536.117C205.911 536.081 205.87 536.03 205.845 535.971C205.678 535.583 205.55 535.118 205.46 534.579C203.975 525.928 203.083 517.645 203.019 508.546C202.961 499.8 202.984 491.054 203.089 482.309C203.093 482.103 203.008 482.054 202.833 482.163C199.734 484.15 196.641 485.256 192.948 484.132C180.546 480.357 182.631 462.724 194.695 461.885C194.889 461.87 194.977 461.765 194.957 461.571C194.433 455.625 193.899 449.67 193.355 443.705C192.738 436.907 191.532 423.328 185.247 420.882C177.196 417.753 170.078 422.478 164.118 427.377C157.699 432.654 152.631 438.8 147.563 443.583C139.652 451.062 129.097 448.272 120.959 443.105C115.513 439.645 111.249 433.808 107.986 428.169C103.979 421.243 101.386 412.307 99.1087 404.251C99.0714 404.118 99.0614 403.98 99.0793 403.844C99.0973 403.708 99.1428 403.577 99.2132 403.459C99.2836 403.342 99.3772 403.239 99.4885 403.159C99.5997 403.079 99.7262 403.022 99.8602 402.992C101.596 402.6 102.75 403.249 103.32 404.938C108.575 420.532 114.621 440.996 134.095 444.095C139.256 444.916 143.328 443.029 146.695 439.225C152.132 433.082 157.016 428.109 161.346 424.307C167.229 419.14 173.893 417.322 181.373 414.462C185.363 412.936 189.796 413.466 193.804 414.643C203.474 417.468 203.806 425.612 204.738 433.953C204.736 433.998 204.751 434.042 204.781 434.075C204.811 434.109 204.853 434.129 204.898 434.131C204.943 434.133 204.987 434.118 205.02 434.088C205.053 434.058 205.073 434.016 205.076 433.971C209.235 413.571 226.419 404.105 240.295 390.608C246.808 384.274 252.738 377.416 258.085 370.033C261.831 364.86 266.421 357.724 264.383 351.037C263.002 346.499 258.039 345.031 254.054 344.332C252.167 344 250.6 345.206 249.266 346.348C245.817 349.295 242.357 352.825 239.06 355.359C228.8 363.254 217.565 369.452 205.355 373.953C192.231 378.794 182.136 373.4 170.689 367.295C163.559 363.497 156.767 358.138 150.132 353.431C146.602 350.92 142.88 350.548 137.812 350.903C130.961 351.386 133.699 359.204 135.295 363.101C140.542 375.917 148.53 386.685 159.26 395.408C164.561 399.718 169.843 404.05 175.105 408.404C176.561 409.612 177.874 410.899 179.043 412.266C179.132 412.371 179.193 412.496 179.221 412.631C179.249 412.766 179.242 412.905 179.201 413.037C179.161 413.168 179.087 413.287 178.988 413.382C178.889 413.478 178.768 413.547 178.635 413.583C177.897 413.784 177.109 413.612 176.27 413.064C168.794 408.186 161.662 402.862 154.874 397.091C143.538 387.462 133.676 373.423 130.029 358.773C129.685 357.386 129.866 355.988 129.668 354.678C128.744 348.604 130.858 344.039 136.012 340.983C136.241 340.847 136.621 340.806 137.153 340.86C137.363 340.884 137.406 340.81 137.282 340.639C135.167 337.773 132.452 334.872 130.588 332.414C120.903 319.66 113.159 305.884 107.357 291.084C107.267 290.853 107.1 290.661 106.883 290.542C106.667 290.422 106.416 290.383 106.175 290.431C100.437 291.561 98.3631 282.043 98.5961 277.831C98.6025 277.703 98.5814 277.576 98.5342 277.457C98.487 277.338 98.4148 277.231 98.3225 277.143C98.2303 277.054 98.1201 276.987 97.9994 276.945C97.8788 276.903 97.7505 276.887 97.6233 276.899C92.934 277.348 92.4388 267.101 91.932 264.305C91.0757 259.557 90.732 255.06 89.4039 250.085C87.0854 241.388 75.8194 215.338 88.7223 210.672C88.8296 210.633 88.9199 210.558 88.9779 210.46C89.0359 210.362 89.0578 210.247 89.0398 210.134C89.0219 210.022 88.9652 209.919 88.8796 209.844C88.794 209.769 88.6848 209.726 88.5709 209.722L85.6524 209.629C85.4388 209.625 85.2466 209.563 85.0757 209.443C80.0136 205.942 77.8349 181.983 76.8563 174.031C75.5049 163.045 74.9631 152.392 75.2311 142.074C75.767 142.198 76.0311 142.693 76.0233 143.559C75.9942 147.759 75.4874 150.928 78.1903 154.685C78.2339 154.746 78.2592 154.819 78.2634 154.894C78.2675 154.969 78.2502 155.044 78.2136 155.111C77.8446 155.751 77.9087 156.379 78.4058 156.992C77.9689 167.21 79.4136 175.126 81.0505 184.33C80.5262 186.911 80.299 189.946 81.3243 192.468C81.6971 193.392 82.0796 194.318 82.4718 195.247C83.1301 196.814 84.767 195.637 85.4427 197.099C85.5087 197.239 85.6155 197.332 85.7631 197.379L87.0388 197.786C87.2874 198.513 87.7437 199.109 88.4078 199.575L90.1379 200.233C90.2365 200.268 90.3435 200.272 90.4438 200.244C90.5441 200.216 90.6327 200.157 90.6971 200.076C91.7456 198.72 93.0252 197.65 94.5359 196.866C94.6796 196.791 94.8452 196.764 95.0077 196.79C97.2796 197.163 98.8602 196.524 99.7495 194.874L101.852 194.501C102.058 194.466 102.183 194.346 102.225 194.14C106.373 173.025 110.86 151.986 115.687 131.023C116.351 128.151 117.301 125.285 118.151 122.425C118.99 122.223 119.899 122.338 120.878 122.769ZM116.252 197.955C118.983 197.808 121.567 197.518 124.006 197.087C125.946 196.75 127.757 196.884 129.691 196.837C129.936 196.833 130.058 196.707 130.058 196.458C130.058 196.396 130.06 196.332 130.064 196.266C130.066 196.214 130.057 196.163 130.037 196.115C130.018 196.067 129.988 196.024 129.951 195.988C129.913 195.952 129.869 195.925 129.82 195.907C129.771 195.89 129.72 195.883 129.668 195.887C125.159 196.307 120.682 196.948 116.235 197.81C115.536 197.946 115.542 197.994 116.252 197.955ZM281.48 236.612C281.899 235.412 282.256 234.2 282.551 232.977C282.579 232.872 282.565 232.792 282.511 232.738C282.417 232.641 282.351 232.658 282.313 232.79L281.311 236.414C278.27 246.014 273.709 255.183 263.317 257.891C259.433 258.905 255.779 259.666 252.353 260.175C252.136 260.21 251.996 260.332 251.934 260.542C251.88 260.713 251.779 260.746 251.631 260.641L251.299 260.396C251.144 260.28 250.967 260.225 250.769 260.233C247.984 260.369 244.254 260.332 239.579 260.122C232.664 259.814 223.751 258.421 219.371 252.887C216.021 248.664 213.604 245.676 212.351 240.689C210.402 232.907 209.955 225.21 211.012 217.598C212.911 203.874 225.68 202.546 236.229 200.367C236.489 200.313 236.689 200.151 236.829 199.884C236.918 199.717 237.056 199.623 237.243 199.604C242.047 199.157 247.192 199.118 252.68 199.487C263.2 200.202 273.249 201.693 282.825 203.961C283.691 204.167 284.707 204.734 285.872 205.662C286.023 205.783 286.124 205.936 286.175 206.122C288.219 213.427 286.419 223.266 285.639 230.751C284.73 239.408 282.633 247.056 278.864 254.792C275.905 260.88 269.718 262.953 263.59 264.392C252.67 266.967 241.703 267.408 230.689 265.715C225.645 264.94 219.155 263.146 215.171 260.017C215.019 259.901 214.93 259.748 214.903 259.557C214.355 256.056 214.95 254.379 212.381 251.46C210.814 249.678 209.223 247.918 208.169 245.816C206.056 241.598 204.796 237.14 204.388 232.441C204.241 230.744 203.979 229.311 203.602 228.142C202.433 224.526 201.33 221.707 200.293 219.684C196.489 212.262 189.65 211.155 185.666 219.019C183.254 223.779 182.905 230.35 182.089 235.598C181.198 241.336 179.847 246.328 176.649 250.423C173.845 254.008 171.796 257.049 170.503 259.546C168.959 262.517 161.526 264.229 158.45 264.852C144.266 267.713 128.264 267.322 114.383 263.041C107.567 260.938 103.542 253.249 101.497 246.893C98.0252 236.117 96.3767 224.769 91.9961 214.517C91.9556 214.419 91.8846 214.337 91.7934 214.282C91.7022 214.228 91.5957 214.204 91.4893 214.214C84.1146 214.918 87.0388 227.058 87.8718 231.515C88.9204 237.153 91.4485 242.938 93.3592 248.53C94.4718 251.769 94.5184 255.625 95.1767 259.027C95.3864 260.117 95.1301 261.025 95.4563 262.173C96.4757 265.685 95.5437 269.221 97.4369 272.332C97.5184 272.468 97.6388 272.559 97.798 272.606L99.8544 273.188C100.015 273.233 100.151 273.338 100.233 273.48C101.526 275.658 103.163 285.951 105.575 286.551C105.625 286.564 105.678 286.563 105.728 286.55C105.778 286.538 105.825 286.513 105.863 286.478C105.901 286.444 105.93 286.4 105.946 286.352C105.963 286.304 105.968 286.252 105.959 286.202C105.738 284.816 105.231 283.52 104.439 282.317C103.86 281.435 103.181 279.416 102.4 276.258C101.59 272.973 99.633 270.136 99.1553 266.763C98.0311 258.887 96.3359 251.006 95.5262 243.113C94.6874 234.969 92.7243 226.895 91.268 218.518C91.2537 218.437 91.2597 218.353 91.2855 218.274C91.3113 218.195 91.3561 218.124 91.4159 218.066C91.4758 218.009 91.5488 217.967 91.6286 217.944C91.7085 217.921 91.7926 217.918 91.8738 217.936C93.6097 218.297 94.9029 222.8 95.0951 223.802C96.3068 230.134 98.2291 236.431 99.4116 242.565C100.029 245.784 100.381 248.12 100.466 249.573C101.107 260.693 103.926 270.876 108.173 280.773C109.868 284.722 111.155 289.802 112.92 293.816C116.784 302.612 121.256 311.085 126.336 319.237C131.136 326.944 136.798 334.004 142.839 340.773C144.979 343.169 147.693 345.697 150.983 348.357C162.179 357.416 171.464 364.254 184.926 369.899C192.627 373.126 199.379 372.59 207.05 369.363C212.192 367.204 218.033 364.206 224.573 360.369C238.984 351.911 250.856 339.555 259.489 325.703C274.897 300.981 280.204 271.097 285.942 243.002C287.584 234.951 293.753 207.887 289.28 205.103C287.979 204.295 285.631 203.544 282.237 202.849C267.983 199.942 254.736 198.625 239.031 197.583C233.66 197.221 228.779 197.449 223.111 197.612C218.515 197.751 206.847 201.002 209.002 207.777C209.015 207.822 209.042 207.862 209.078 207.893C209.114 207.923 209.158 207.943 209.204 207.949C209.251 207.955 209.299 207.948 209.341 207.928C209.384 207.907 209.42 207.875 209.445 207.835C215.252 198.87 223.274 198.346 233.311 198.491C234.398 198.511 234.647 199.014 234.056 200C233.982 200.123 233.88 200.227 233.759 200.304C233.638 200.381 233.5 200.428 233.357 200.443C223.047 201.474 213.796 205.447 208.402 214.674C207.202 216.718 207.546 219.113 207.755 221.361C208.466 228.922 209.276 236.617 212.217 243.689C213.487 246.73 215.637 249.118 217.728 251.699C219.179 253.499 219.272 255.649 219.353 257.845C219.359 257.939 219.389 258.03 219.442 258.107C219.494 258.184 219.566 258.245 219.65 258.282C223.449 259.983 227.808 261.111 232.728 261.666C242.503 262.773 251.779 262.456 260.555 260.717C267.26 259.394 273.685 257.076 276.895 250.476C279.268 245.586 280.796 240.965 281.48 236.612ZM110.596 254.891C113.887 259.476 119.276 260.635 124.513 261.328C134.214 262.614 143.92 262.685 153.633 261.544C156.961 261.151 161.155 260.229 166.216 258.777C167.155 258.509 167.581 257.95 167.491 257.099C167.469 256.897 167.525 256.695 167.649 256.534C171.284 251.804 176.555 245.658 177.546 239.67C178.136 236.089 178.796 231.214 179.526 225.043C180.12 220.021 180.28 216.365 180.004 214.074C179.579 210.52 177.79 203.396 174.452 201.351C166.53 196.505 154.274 196.889 144.843 197.81C142.571 198.031 139.984 198.031 137.538 198.346C135.231 198.637 133.416 198.806 132.091 198.852C124.093 199.12 116.707 200.437 105.93 202.097C103.489 202.47 101.188 203.128 98.8815 203.827C94.7864 205.068 95.0777 208.062 96.1786 211.645C97.3942 215.59 98.4485 219.579 99.3417 223.61C99.8485 225.893 100.373 230.07 101.369 233.262C103.734 240.852 105.889 248.338 110.596 254.891ZM223.658 250.924C227.928 254.553 232.513 255.043 237.843 255.742C239.084 255.905 240.534 255.724 241.88 255.934C246.977 256.72 252.72 256.109 257.619 255.235C276.796 251.798 281.136 225.188 282.056 209.186C282.179 207.066 280.495 206.751 278.608 206.285C263.509 202.581 248.043 200.816 232.839 203.955C223.676 205.843 215.963 209.227 214.623 219.619C213.278 230.117 215.031 243.59 223.658 250.924ZM85.8388 203.944C85.7957 203.928 85.75 203.922 85.7043 203.925C85.6585 203.928 85.6138 203.94 85.5725 203.961C85.5313 203.981 85.4945 204.01 85.4642 204.045C85.4339 204.08 85.4107 204.121 85.3961 204.165C85.2951 204.472 85.332 204.775 85.5068 205.074C85.5723 205.187 85.6765 205.273 85.8001 205.315C85.9238 205.357 86.0586 205.352 86.1798 205.302C86.3011 205.251 86.4005 205.159 86.4599 205.041C86.5192 204.923 86.5345 204.788 86.5029 204.66C86.4175 204.315 86.1961 204.076 85.8388 203.944ZM298.771 205.306C298.836 205.343 298.942 205.299 299.067 205.183C299.192 205.068 299.326 204.892 299.438 204.693C299.493 204.594 299.542 204.493 299.581 204.395C299.62 204.297 299.649 204.204 299.666 204.121C299.682 204.039 299.687 203.968 299.678 203.914C299.67 203.86 299.649 203.822 299.617 203.804C299.553 203.768 299.446 203.812 299.321 203.927C299.196 204.042 299.063 204.219 298.951 204.418C298.895 204.517 298.846 204.618 298.807 204.716C298.768 204.814 298.739 204.907 298.723 204.989C298.706 205.072 298.702 205.142 298.71 205.197C298.718 205.251 298.739 205.288 298.771 205.306ZM298.443 207.555C298.163 207.963 298.054 208.437 298.117 208.977C298.148 209.256 298.245 209.282 298.408 209.052C298.734 208.59 298.847 208.111 298.746 207.614C298.691 207.357 298.59 207.338 298.443 207.555ZM284.416 277.971C284.335 277.97 284.256 277.951 284.185 277.913C284.113 277.875 284.053 277.821 284.007 277.755C283.962 277.689 283.933 277.613 283.924 277.534C283.915 277.455 283.926 277.375 283.955 277.301C284.887 274.948 286.501 272.95 287.159 270.654C288.771 264.992 290.105 259.262 291.161 253.464C291.538 251.398 292.064 249.425 292.74 247.546C294.569 242.489 296.291 237.398 297.907 232.272C299.817 226.214 300.957 221.833 301.326 219.13C301.649 216.769 300.705 214.874 298.495 213.445C298.348 213.348 298.223 213.373 298.122 213.52C295.742 216.926 294.136 220.596 293.305 224.53C292.26 229.493 291.235 233.878 290.229 237.683C289.827 239.186 290.701 240.573 290.258 242.379C288.08 251.28 286.227 260.249 284.701 269.285C283.716 275.122 282.056 280.621 280.6 286.284C280.579 286.36 280.586 286.442 280.618 286.515C280.65 286.588 280.706 286.647 280.777 286.684C280.847 286.721 280.928 286.732 281.006 286.717C281.084 286.701 281.155 286.659 281.206 286.598C283.344 284.07 285.918 281.746 287.485 279.078C291.967 271.439 294.115 263.103 293.928 254.07C293.924 254.023 293.901 253.992 293.858 253.977C293.812 253.961 293.765 253.946 293.718 253.93C293.633 253.903 293.588 253.934 293.584 254.023C292.926 261.957 291.837 271.971 286.076 277.738C286.002 277.812 285.914 277.87 285.817 277.91C285.72 277.95 285.616 277.971 285.511 277.971H284.416ZM134.002 348.177C137.381 346.295 140.206 346.849 143.683 347.414C144.13 347.487 144.184 347.373 143.847 347.07L138.924 342.666C138.765 342.526 138.629 342.546 138.516 342.724C137.124 344.95 135.039 345.701 133.845 348.025C133.728 348.251 133.781 348.301 134.002 348.177ZM182.404 417.468C190.583 417.485 194.025 424.441 195.295 431.32C196.949 440.297 198.68 451.056 198.15 461.6C198.142 461.794 198.233 461.909 198.423 461.944C200.326 462.274 201.94 463.128 203.264 464.507C203.28 464.524 203.3 464.535 203.322 464.54C203.345 464.545 203.368 464.543 203.389 464.534C203.41 464.525 203.428 464.51 203.44 464.49C203.452 464.471 203.458 464.448 203.456 464.425C203.054 457.377 203.456 450.089 202.419 443.175C201.499 436.988 200.742 431.297 198.948 424.913C196.641 416.711 188.992 416.979 182.427 417.235C182.381 417.235 182.353 417.256 182.346 417.299C182.334 417.342 182.34 417.39 182.363 417.445C182.371 417.46 182.384 417.468 182.404 417.468ZM193.894 480.731C195.809 481.248 197.863 480.939 199.604 479.873C201.344 478.808 202.629 477.072 203.175 475.048C203.445 474.045 203.526 473.002 203.413 471.979C203.3 470.955 202.995 469.97 202.516 469.08C202.036 468.191 201.392 467.414 200.619 466.794C199.847 466.174 198.961 465.723 198.013 465.467C196.097 464.95 194.044 465.259 192.303 466.325C190.563 467.39 189.278 469.126 188.732 471.151C188.462 472.153 188.381 473.196 188.494 474.219C188.607 475.243 188.912 476.228 189.391 477.118C189.87 478.007 190.515 478.784 191.287 479.404C192.06 480.024 192.946 480.475 193.894 480.731Z" fill="#0A0C0F"/>
<path d="M119.905 125.571C119.85 125.591 119.798 125.612 119.747 125.635C119.542 125.367 119.411 125.08 119.357 124.773C119.322 124.587 119.39 124.534 119.561 124.616C119.79 124.725 119.905 125.043 119.905 125.571Z" fill="#141318"/>
<path d="M119.881 126.235L118.349 133.528C118.283 133.113 118.097 132.794 117.79 132.573C117.723 132.524 117.671 132.457 117.639 132.38C117.608 132.303 117.597 132.219 117.61 132.136C117.862 130.392 118.118 128.65 118.379 126.911C118.445 126.464 118.705 126.334 119.159 126.52C119.338 126.594 119.501 126.567 119.648 126.439L119.881 126.235Z" fill="#141318"/>
<path d="M272.809 145.725C273.889 147.352 274.902 148.58 275.071 148.467C275.24 148.355 274.501 146.946 273.42 145.319C272.339 143.693 271.327 142.465 271.158 142.577C270.989 142.689 271.728 144.099 272.809 145.725Z" fill="#F8F8F8"/>
<path d="M257.322 146.305C257.312 146.723 257.377 147.064 257.467 147.066C257.557 147.068 257.638 146.731 257.648 146.313C257.659 145.895 257.594 145.554 257.504 145.552C257.414 145.549 257.333 145.887 257.322 146.305Z" fill="#141318"/>
<path d="M279.178 154.593C279.195 154.587 279.214 154.588 279.23 154.595C279.246 154.603 279.259 154.617 279.266 154.633L279.306 154.75C281.459 160.729 283.491 166.478 284.959 170.74C286.427 175.003 287.211 177.434 287.141 177.503L287.089 177.526C286.998 177.536 286.055 175.17 284.467 170.947C282.879 166.723 280.776 160.987 278.619 154.994L278.578 154.884C278.575 154.875 278.573 154.866 278.573 154.856C278.573 154.847 278.575 154.837 278.579 154.828C278.582 154.82 278.588 154.812 278.595 154.805C278.602 154.799 278.61 154.794 278.619 154.791L279.178 154.593Z" fill="#F8F8F8"/>
<path d="M81.0503 184.33C79.4134 175.126 77.9687 167.21 78.4056 156.992C78.3357 156.654 78.3221 156.371 78.3649 156.142C78.3759 156.093 78.4041 156.049 78.4443 156.019C78.4845 155.99 78.5341 155.975 78.5842 155.979C78.6342 155.982 78.6813 156.003 78.7169 156.039C78.7525 156.074 78.7744 156.121 78.7784 156.171C78.9493 160.21 79.1299 164.215 79.3202 168.188C79.559 173.279 80.7008 178.889 81.0503 184.33Z" fill="#F8F8F8"/>
<path d="M116.252 197.955C115.542 197.994 115.536 197.946 116.235 197.81C120.681 196.948 125.159 196.307 129.668 195.887C129.719 195.883 129.771 195.89 129.82 195.907C129.869 195.925 129.913 195.952 129.951 195.988C129.988 196.024 130.018 196.067 130.037 196.115C130.057 196.163 130.066 196.214 130.064 196.266C130.06 196.332 130.058 196.396 130.058 196.458C130.058 196.707 129.936 196.833 129.691 196.837C127.757 196.884 125.945 196.75 124.006 197.087C121.567 197.518 118.982 197.808 116.252 197.955Z" fill="#141318"/>
<path d="M281.31 236.414C281.594 236.553 281.65 236.619 281.479 236.612C280.796 240.965 279.268 245.586 276.895 250.476C273.685 257.076 267.26 259.394 260.555 260.716C251.778 262.456 242.503 262.773 232.728 261.666C227.807 261.111 223.448 259.982 219.65 258.281C219.566 258.245 219.494 258.184 219.441 258.107C219.389 258.03 219.358 257.939 219.353 257.845C219.271 255.648 219.178 253.499 217.728 251.699C215.637 249.118 213.487 246.73 212.217 243.689C209.275 236.617 208.466 228.922 207.755 221.361C207.545 219.113 207.202 216.718 208.402 214.674C213.796 205.447 223.046 201.474 233.357 200.443C233.5 200.428 233.637 200.381 233.759 200.304C233.88 200.227 233.982 200.123 234.056 200C234.646 199.014 234.398 198.511 233.31 198.491C223.273 198.346 215.252 198.87 209.444 207.835C209.42 207.875 209.384 207.907 209.341 207.928C209.298 207.948 209.251 207.955 209.204 207.949C209.157 207.943 209.113 207.923 209.077 207.893C209.041 207.862 209.015 207.822 209.002 207.777C206.846 201.002 218.514 197.751 223.11 197.612C228.778 197.448 233.66 197.221 239.031 197.582C254.736 198.625 267.982 199.942 282.237 202.848C285.631 203.544 287.978 204.295 289.279 205.103C293.753 207.887 287.584 234.951 285.941 243.002C280.204 271.097 274.897 300.981 259.489 325.703C250.856 339.555 238.984 351.911 224.572 360.369C218.033 364.206 212.192 367.204 207.05 369.363C199.378 372.59 192.627 373.126 184.926 369.899C171.464 364.254 162.178 357.415 150.982 348.357C147.693 345.697 144.978 343.169 142.838 340.773C136.798 334.004 131.136 326.944 126.336 319.237C121.256 311.085 116.784 302.612 112.92 293.815C111.155 289.802 109.868 284.722 108.172 280.773C103.926 270.876 101.106 260.693 100.466 249.573C100.38 248.12 100.029 245.784 99.4113 242.565C98.2288 236.431 96.3064 230.134 95.0948 223.802C94.9025 222.8 93.6093 218.297 91.8734 217.936C91.7923 217.918 91.7081 217.921 91.6283 217.944C91.5484 217.967 91.4754 218.008 91.4156 218.066C91.3558 218.124 91.311 218.195 91.2852 218.274C91.2594 218.353 91.2533 218.437 91.2676 218.518C92.7239 226.895 94.687 234.969 95.5258 243.113C96.3355 251.006 98.0307 258.887 99.155 266.763C99.6326 270.136 101.59 272.973 102.4 276.258C103.18 279.415 103.86 281.435 104.438 282.316C105.231 283.52 105.737 284.815 105.959 286.202C105.967 286.252 105.963 286.304 105.946 286.352C105.929 286.4 105.9 286.444 105.862 286.478C105.824 286.513 105.778 286.538 105.728 286.55C105.678 286.563 105.625 286.563 105.574 286.551C103.163 285.951 101.526 275.658 100.233 273.48C100.151 273.338 100.015 273.233 99.854 273.188L97.7977 272.606C97.6385 272.559 97.5181 272.468 97.4365 272.332C95.5433 269.221 96.4754 265.685 95.4559 262.173C95.1297 261.025 95.386 260.116 95.1763 259.027C94.5181 255.625 94.4715 251.769 93.3588 248.53C91.4482 242.938 88.92 237.153 87.8715 231.514C87.0385 227.058 84.1142 214.918 91.4889 214.214C91.5953 214.204 91.7019 214.228 91.793 214.282C91.8842 214.337 91.9552 214.419 91.9957 214.516C96.3763 224.769 98.0249 236.116 101.497 246.893C103.541 253.248 107.567 260.938 114.382 263.041C128.264 267.322 144.266 267.713 158.45 264.852C161.526 264.229 168.959 262.516 170.503 259.546C171.796 257.048 173.844 254.008 176.648 250.423C179.846 246.328 181.198 241.336 182.089 235.598C182.904 230.349 183.254 223.779 185.666 219.019C189.65 211.155 196.489 212.262 200.293 219.683C201.33 221.707 202.433 224.526 203.602 228.142C203.978 229.311 204.24 230.744 204.388 232.441C204.796 237.14 206.056 241.598 208.169 245.815C209.223 247.918 210.813 249.678 212.38 251.46C214.949 254.379 214.355 256.056 214.903 259.557C214.93 259.748 215.019 259.901 215.17 260.017C219.155 263.146 225.644 264.94 230.689 265.714C241.703 267.408 252.67 266.967 263.59 264.392C269.718 262.953 275.905 260.88 278.864 254.792C282.633 247.056 284.73 239.408 285.638 230.751C286.419 223.266 288.219 213.427 286.174 206.122C286.124 205.936 286.023 205.782 285.871 205.662C284.706 204.734 283.691 204.167 282.825 203.961C273.248 201.693 263.2 200.202 252.679 199.487C247.192 199.118 242.046 199.157 237.242 199.604C237.056 199.623 236.918 199.716 236.829 199.883C236.689 200.151 236.489 200.313 236.229 200.367C225.679 202.546 212.91 203.874 211.011 217.598C209.955 225.21 210.402 232.907 212.351 240.689C213.604 245.676 216.021 248.664 219.371 252.887C223.751 258.421 232.664 259.814 239.578 260.122C244.254 260.332 247.984 260.369 250.769 260.233C250.967 260.225 251.143 260.28 251.299 260.396L251.631 260.641C251.778 260.746 251.879 260.713 251.934 260.542C251.996 260.332 252.136 260.21 252.353 260.175C255.778 259.666 259.433 258.905 263.316 257.891C273.708 255.182 278.27 246.014 281.31 236.414ZM174.877 313.808C179.666 314.262 184.417 314.54 189.132 314.641C195.778 314.775 203.211 313.883 210.266 313.441C211.501 313.363 213.064 313.068 214.955 312.555C215.141 312.505 215.237 312.382 215.24 312.188C215.27 307.744 212.549 309.462 209.904 309.567C204.852 309.757 199.805 310.08 194.765 310.534C193.005 310.691 190.972 311.344 188.788 310.773C186.336 310.12 183.895 310.4 181.407 310.184C179.24 309.998 176.939 310.505 174.563 310.144C174.516 310.136 174.469 310.139 174.423 310.152C174.378 310.165 174.336 310.187 174.3 310.218C174.264 310.249 174.235 310.288 174.215 310.331C174.195 310.375 174.184 310.422 174.184 310.47V313.045C174.185 313.236 174.256 313.42 174.384 313.561C174.512 313.702 174.688 313.79 174.877 313.808Z" fill="#F8F8F8"/>
<path d="M124.513 261.328C119.276 260.635 113.887 259.476 110.596 254.891C105.889 248.338 103.734 240.852 101.369 233.262C100.373 230.07 99.8485 225.893 99.3417 223.61C98.4485 219.579 97.3942 215.59 96.1786 211.645C95.0777 208.062 94.7864 205.068 98.8815 203.827C101.188 203.128 103.489 202.47 105.93 202.097C116.707 200.437 124.093 199.12 132.091 198.852C133.416 198.806 135.231 198.637 137.538 198.346C139.984 198.031 142.571 198.031 144.843 197.81C154.274 196.889 166.53 196.505 174.452 201.351C177.79 203.396 179.579 210.52 180.004 214.074C180.28 216.365 180.12 220.021 179.526 225.043C178.796 231.214 178.136 236.089 177.546 239.67C176.555 245.658 171.283 251.804 167.649 256.534C167.525 256.695 167.469 256.897 167.491 257.099C167.581 257.949 167.155 258.509 166.216 258.777C161.155 260.229 156.961 261.151 153.633 261.544C143.92 262.685 134.214 262.614 124.513 261.328ZM107.788 248.425C111.062 255.252 118.192 258.847 125.544 259.685C133.509 260.59 141.472 260.592 149.433 259.691C154.501 259.12 163.495 257.763 167.113 253.854C173.922 246.491 176.526 237.223 177.592 227.431C177.907 224.513 177.592 220.621 177.948 216.957C178.348 212.872 177.443 209.266 175.233 206.14C169.559 198.107 157.035 197.513 148.239 198.206C146.986 198.305 146.177 198.852 145.332 199.685C145.188 199.829 145.014 199.893 144.808 199.878C142.004 199.683 139.196 199.66 136.384 199.808C136.233 199.819 136.095 199.8 135.971 199.749C135.835 199.699 135.701 199.639 135.569 199.569C135.402 199.476 135.223 199.445 135.033 199.476C127.014 200.633 118.996 201.802 110.981 202.982C107.311 203.524 99.2602 204.008 99.3359 208.796C99.4582 216.608 99.8951 224.693 101.806 232.074C103.262 237.701 105.256 243.151 107.788 248.425Z" fill="#F8F8F8"/>
<path d="M88.4075 199.575C87.7434 199.109 87.2871 198.513 87.0386 197.786C87.7027 197.573 88.159 198.169 88.4075 199.575Z" fill="#F8F8F8"/>
<path d="M125.543 259.685C118.192 258.847 111.062 255.252 107.788 248.425C105.256 243.151 103.262 237.701 101.805 232.074C99.8947 224.693 99.4578 216.608 99.3355 208.796C99.2598 204.008 107.31 203.524 110.98 202.982C118.996 201.802 127.013 200.633 135.033 199.476C135.223 199.445 135.402 199.476 135.568 199.569C135.701 199.639 135.835 199.699 135.97 199.749C136.095 199.8 136.233 199.819 136.384 199.808C139.196 199.66 142.003 199.683 144.807 199.878C145.013 199.893 145.188 199.829 145.332 199.685C146.176 198.852 146.986 198.305 148.238 198.206C157.035 197.513 169.559 198.107 175.233 206.14C177.442 209.266 178.347 212.872 177.947 216.957C177.592 220.621 177.906 224.513 177.592 227.431C176.526 237.223 173.922 246.491 167.112 253.854C163.495 257.763 154.501 259.12 149.433 259.691C141.471 260.592 133.508 260.59 125.543 259.685ZM147.003 200.775C156.469 200.734 171.126 204.142 174.475 214.61C175.101 216.563 175.231 216.53 174.866 214.511C173.508 206.984 164.77 202.272 157.879 201.229C154.291 200.682 150.685 200.433 147.062 200.483C147.023 200.483 146.998 200.501 146.986 200.536C146.97 200.586 146.953 200.637 146.934 200.687C146.914 200.746 146.937 200.775 147.003 200.775ZM105.784 231.951C107.974 239.926 111.464 251.571 120.743 254.082C124.755 255.165 128.844 255.777 133.011 255.916C134.899 255.981 136.757 256.26 138.586 256.19C146.928 255.864 158.095 256.179 164.473 250.388C170.811 244.627 174.12 229.784 173.019 221.699C171.965 213.975 165.568 208.144 158.264 205.93C151.011 203.728 142.559 202.505 134.636 203.012C126.252 203.54 117.592 204.794 108.656 206.775C106.66 207.217 105.062 207.682 103.862 208.167C103.664 208.245 103.565 208.39 103.565 208.604C103.454 216.276 103.768 224.588 105.784 231.951Z" fill="#0A0C0F"/>
<path d="M174.476 214.61C171.126 204.142 156.47 200.734 147.004 200.775C146.938 200.775 146.914 200.746 146.934 200.687C146.953 200.637 146.971 200.586 146.986 200.536C146.998 200.501 147.023 200.483 147.062 200.483C150.685 200.433 154.291 200.682 157.88 201.229C164.771 202.272 173.509 206.984 174.866 214.511C175.231 216.53 175.101 216.563 174.476 214.61Z" fill="#F8F8F8"/>
<path d="M223.658 250.924C215.031 243.59 213.277 230.116 214.623 219.619C215.963 209.227 223.675 205.843 232.839 203.955C248.042 200.816 263.508 202.581 278.607 206.285C280.495 206.751 282.178 207.066 282.056 209.186C281.136 225.188 276.796 251.798 257.619 255.235C252.72 256.109 246.976 256.72 241.879 255.934C240.534 255.724 239.083 255.905 237.842 255.742C232.512 255.043 227.928 254.553 223.658 250.924Z" fill="#F8F8F8"/>
<path d="M120.743 254.082C111.464 251.571 107.975 239.926 105.784 231.952C103.769 224.588 103.454 216.276 103.565 208.604C103.565 208.39 103.664 208.245 103.862 208.167C105.062 207.682 106.66 207.218 108.656 206.775C117.592 204.794 126.252 203.54 134.637 203.012C142.559 202.505 151.011 203.728 158.264 205.93C165.569 208.144 171.965 213.975 173.019 221.699C174.12 229.785 170.811 244.627 164.474 250.388C158.095 256.179 146.928 255.864 138.586 256.19C136.757 256.26 134.899 255.981 133.011 255.917C128.844 255.777 124.755 255.165 120.743 254.082Z" fill="#F8F8F8"/>
<path d="M85.8385 203.944C86.1958 204.076 86.4172 204.315 86.5026 204.66C86.5342 204.788 86.5189 204.923 86.4595 205.041C86.4002 205.159 86.3008 205.251 86.1795 205.302C86.0583 205.352 85.9235 205.357 85.7998 205.315C85.6762 205.273 85.572 205.187 85.5065 205.074C85.3317 204.775 85.2948 204.472 85.3958 204.165C85.4104 204.121 85.4336 204.08 85.4639 204.045C85.4942 204.01 85.531 203.981 85.5722 203.961C85.6135 203.94 85.6582 203.928 85.704 203.925C85.7497 203.922 85.7954 203.928 85.8385 203.944Z" fill="#F8F8F8"/>
<path d="M298.95 204.418C298.717 204.833 298.636 205.231 298.771 205.306C298.905 205.382 299.204 205.107 299.438 204.693C299.671 204.278 299.752 203.88 299.617 203.804C299.483 203.728 299.184 204.003 298.95 204.418Z" fill="#F8F8F8"/>
<path d="M298.745 207.614C298.846 208.111 298.734 208.59 298.407 209.053C298.244 209.282 298.147 209.256 298.116 208.977C298.054 208.437 298.163 207.963 298.442 207.555C298.59 207.338 298.691 207.357 298.745 207.614Z" fill="#141318"/>
<path d="M284.415 277.971H285.51C285.616 277.971 285.72 277.95 285.817 277.91C285.914 277.87 286.002 277.812 286.076 277.738C291.837 271.971 292.926 261.957 293.584 254.023C293.588 253.934 293.633 253.903 293.718 253.93C293.765 253.945 293.811 253.961 293.858 253.977C293.901 253.992 293.924 254.023 293.928 254.07C294.114 263.103 291.967 271.439 287.485 279.078C285.918 281.745 283.343 284.07 281.206 286.598C281.155 286.659 281.084 286.701 281.006 286.717C280.928 286.732 280.847 286.721 280.776 286.684C280.706 286.647 280.65 286.588 280.618 286.515C280.585 286.442 280.579 286.36 280.6 286.283C282.056 280.621 283.716 275.122 284.701 269.285C286.227 260.248 288.079 251.279 290.258 242.378C290.701 240.573 289.827 239.186 290.229 237.683C291.235 233.878 292.26 229.493 293.305 224.53C294.136 220.596 295.742 216.926 298.122 213.52C298.223 213.373 298.347 213.347 298.495 213.445C300.705 214.874 301.648 216.769 301.326 219.13C300.957 221.833 299.817 226.213 297.907 232.272C296.291 237.398 294.569 242.489 292.74 247.545C292.064 249.425 291.538 251.398 291.161 253.464C290.105 259.262 288.771 264.992 287.159 270.654C286.501 272.949 284.887 274.947 283.955 277.301C283.926 277.375 283.915 277.455 283.924 277.534C283.933 277.613 283.962 277.689 284.007 277.755C284.052 277.821 284.113 277.875 284.184 277.913C284.256 277.95 284.335 277.97 284.415 277.971ZM296.38 216.975C296.054 218.868 294.976 221.128 294.254 222.928C292.629 226.977 292.885 231.019 291.394 235.307C291.297 235.59 291.361 235.637 291.586 235.446C292.734 234.479 293.893 233.949 294.481 232.487C296.34 227.833 297.942 221.996 296.905 216.963C296.891 216.903 296.856 216.85 296.808 216.812C296.759 216.775 296.699 216.755 296.638 216.756C296.576 216.757 296.517 216.78 296.47 216.82C296.423 216.86 296.392 216.914 296.38 216.975Z" fill="#F8F8F8"/>
<path d="M294.254 222.928C294.976 221.128 296.054 218.868 296.38 216.975C296.392 216.914 296.423 216.86 296.47 216.82C296.517 216.78 296.576 216.758 296.638 216.756C296.699 216.755 296.759 216.775 296.808 216.813C296.856 216.85 296.891 216.903 296.905 216.963C297.942 221.996 296.34 227.833 294.481 232.488C293.893 233.95 292.734 234.48 291.586 235.447C291.361 235.637 291.297 235.59 291.394 235.307C292.885 231.02 292.629 226.977 294.254 222.928Z" fill="#0A0C0F"/>
<path d="M281.479 236.612C281.65 236.62 281.594 236.554 281.311 236.414L282.312 232.79C282.351 232.658 282.417 232.641 282.511 232.738C282.565 232.792 282.579 232.872 282.551 232.977C282.256 234.2 281.899 235.412 281.479 236.612Z" fill="#141318"/>
<path d="M174.877 313.808C174.688 313.79 174.512 313.703 174.384 313.561C174.256 313.42 174.185 313.236 174.184 313.045V310.47C174.184 310.422 174.195 310.375 174.215 310.331C174.235 310.288 174.264 310.249 174.3 310.218C174.336 310.187 174.378 310.165 174.423 310.152C174.469 310.139 174.516 310.136 174.563 310.144C176.939 310.505 179.24 309.998 181.407 310.185C183.895 310.4 186.336 310.12 188.788 310.773C190.972 311.344 193.005 310.691 194.765 310.534C199.805 310.08 204.852 309.757 209.904 309.567C212.549 309.462 215.27 307.744 215.24 312.188C215.236 312.383 215.141 312.505 214.955 312.555C213.064 313.068 211.501 313.363 210.266 313.441C203.211 313.884 195.778 314.775 189.132 314.641C184.417 314.54 179.666 314.262 174.877 313.808Z" fill="#0A0C0F"/>
<path d="M129.388 384.544C129.718 385.316 130.18 385.909 130.774 386.32C131.159 386.584 131.207 386.532 130.92 386.163L129.662 384.532C126.085 378.528 123.866 374.229 123.004 371.635C122.44 369.938 121.93 366.291 121.472 360.695C121.005 355.006 122.054 349.996 124.617 345.666C125.468 344.233 131.98 335.425 133.862 338.373C134.437 339.27 134.355 340.025 133.617 340.639C131.037 342.788 128.602 345.136 127.209 348.247C123.493 356.577 123.52 365.052 127.291 373.674C129.563 378.858 132.825 384.165 134.066 389.664C134.081 389.733 134.079 389.805 134.059 389.873C134.04 389.941 134.003 390.002 133.953 390.052C133.903 390.102 133.841 390.139 133.773 390.159C133.705 390.178 133.634 390.18 133.565 390.165C128.555 389.041 122.31 382.254 119.805 377.932C118.811 376.219 117.893 374.466 117.05 372.672C115.978 370.388 116.538 369.089 118.786 368.14C118.924 368.082 119.079 368.079 119.22 368.131C119.362 368.183 119.479 368.286 119.549 368.419C122.427 374.031 125.706 379.406 129.388 384.544Z" fill="#0A0C0F"/>
<path d="M143.683 347.413C140.206 346.848 137.38 346.295 134.002 348.176C133.78 348.301 133.728 348.25 133.844 348.025C135.039 345.701 137.124 344.949 138.516 342.724C138.629 342.545 138.765 342.526 138.924 342.666L143.846 347.07C144.184 347.373 144.13 347.487 143.683 347.413Z" fill="#F8F8F8"/>
<path d="M104.654 381.223C104.208 381.289 103.825 381.155 103.507 380.821C103.439 380.752 103.389 380.666 103.363 380.572C103.336 380.479 103.334 380.38 103.355 380.285C105.097 372.672 110.532 366.858 115.751 361.528C116.695 360.565 117.883 360.033 119.316 359.932C119.365 359.928 119.414 359.934 119.46 359.949C119.506 359.964 119.548 359.989 119.585 360.021C119.621 360.053 119.651 360.092 119.672 360.136C119.693 360.18 119.705 360.227 119.707 360.276L119.788 362.419C119.796 362.61 119.728 362.767 119.584 362.891C116.13 365.891 106.687 376.575 107.398 381.276C107.456 381.656 107.474 382.011 107.45 382.342C106.186 401.769 115.355 422.221 128.118 436.301C128.588 436.821 128.924 437.466 129.126 438.235C129.165 438.394 129.142 438.542 129.056 438.678C128.423 439.676 127.707 439.93 126.907 439.441C124.394 437.899 121.911 435.474 119.456 432.165C110.252 419.753 105.097 405.982 103.99 390.852C103.993 390.789 103.971 390.727 103.929 390.68C103.886 390.633 103.826 390.605 103.763 390.602C103.7 390.599 103.638 390.621 103.591 390.663C103.544 390.706 103.516 390.766 103.513 390.829C103.039 393.804 102.662 396.639 102.383 399.334C102.184 401.18 101.445 402.392 99.4233 401.821C99.2524 401.775 99.1592 401.662 99.1437 401.483C98.701 396.683 99.1456 391.988 100.478 387.398C101.113 385.208 103.35 383.512 105.033 382.044C105.109 381.977 105.162 381.887 105.183 381.788C105.204 381.689 105.192 381.585 105.15 381.493C105.107 381.4 105.036 381.324 104.947 381.276C104.858 381.227 104.755 381.209 104.654 381.223Z" fill="#0A0C0F"/>
<path d="M-4.10882 436.633C-4.23825 436.539 -4.33376 436.406 -4.38102 436.254C-4.42829 436.101 -4.42476 435.938 -4.37095 435.789C-3.00202 432.008 -0.992314 429.556 1.99021 425.944C8.79798 417.703 16.4562 410.779 24.965 405.171C39.3184 395.711 55.4368 387.445 73.5125 382.447C82.1184 380.066 90.7106 377.653 99.2892 375.206C99.9339 375.024 100.596 374.911 101.276 374.868C101.458 374.857 101.565 374.94 101.596 375.119C102.184 378.375 97.2737 379.977 94.8329 380.711C85.831 383.422 76.798 386.024 67.7339 388.517C63.5553 389.666 58.8776 391.426 53.7009 393.794C34.2213 402.707 12.0388 416.315 0.708659 435.072C0.363028 435.647 -0.2894 436.319 -1.24862 437.088C-1.39231 437.204 -1.55542 437.27 -1.73794 437.286C-2.60784 437.363 -3.39814 437.146 -4.10882 436.633Z" fill="#0A0C0F"/>
<path d="M303.895 381.486C303.725 381.387 303.593 381.235 303.517 381.053C303.441 380.871 303.427 380.669 303.476 380.478C303.771 379.321 304.46 378.497 305.544 378.008C305.633 377.969 305.731 377.957 305.827 377.975C305.922 377.993 306.011 378.039 306.08 378.107C307.528 379.544 308.852 380.393 310.052 380.653C335.311 386.099 357.615 393.992 378.831 406.086C390.241 412.591 399.448 421.301 406.454 432.218C407.114 433.251 407.567 434.449 407.812 435.812C407.83 435.911 407.816 436.014 407.77 436.106C407.725 436.197 407.652 436.272 407.561 436.319L405.994 437.14C405.847 437.216 405.687 437.263 405.522 437.276C405.358 437.29 405.192 437.271 405.035 437.22C404.878 437.169 404.732 437.087 404.607 436.979C404.482 436.872 404.379 436.74 404.305 436.592C395.864 419.798 376.903 408.171 360.615 401.024C347.27 395.163 332.742 390.264 317.911 386.344C313.309 385.126 308.025 383.903 303.895 381.486Z" fill="#0A0C0F"/>
<path d="M301.308 386.513C301.419 387.258 301.501 387.858 301.448 388.592C299.998 409.016 294.237 427.429 283.239 444.072C283.145 444.216 283.015 444.309 282.848 444.352C281.908 444.596 281.167 444.328 280.623 443.548C280.561 443.458 280.519 443.357 280.5 443.25C280.481 443.144 280.485 443.034 280.512 442.93C281.013 441.031 281.864 439.136 283.064 437.245C293.776 420.375 296.771 401.903 298.652 382.423C298.66 382.344 298.685 382.267 298.727 382.199C298.769 382.131 298.826 382.074 298.894 382.031C298.962 381.988 299.039 381.962 299.12 381.953C299.2 381.944 299.281 381.954 299.357 381.981C301.145 382.622 302.089 383.903 304.116 384.468C314.386 387.323 324.784 389.88 334.961 392.757C335.123 392.806 335.264 392.909 335.359 393.049C335.454 393.189 335.498 393.358 335.483 393.526C335.468 393.695 335.395 393.853 335.276 393.974C335.158 394.095 335.001 394.172 334.833 394.19C334.631 394.21 334.301 394.175 333.842 394.086C323.38 392.078 313.011 389.66 302.736 386.833C302.34 386.728 301.996 386.466 301.606 386.291C301.373 386.187 301.274 386.26 301.308 386.513Z" fill="#0A0C0F"/>
<path d="M97.4836 384.107C97.5026 384.114 97.5195 384.126 97.5326 384.141C97.5456 384.157 97.5543 384.176 97.5578 384.196C97.5614 384.216 97.5596 384.236 97.5527 384.256C97.5458 384.275 97.534 384.292 97.5185 384.305C96.8816 384.856 96.1302 385.249 95.2642 385.482C86.6389 387.769 78.0409 389.728 69.47 391.359C69.3958 391.381 69.3161 391.372 69.2484 391.335C69.1807 391.298 69.1304 391.235 69.1088 391.161C69.0872 391.087 69.0959 391.007 69.133 390.94C69.1702 390.872 69.2327 390.822 69.3069 390.8C77.5049 387.577 85.7477 385.346 94.035 384.107C95.3282 383.915 96.1146 383.6 97.4836 384.107Z" fill="#141318"/>
<path d="M129.388 384.544C129.439 384.587 129.53 384.583 129.662 384.532L130.92 386.163C131.208 386.532 131.159 386.585 130.775 386.321C130.18 385.909 129.718 385.317 129.388 384.544Z" fill="#141318"/>
<path d="M230.817 416.443C230.176 415.971 229.268 415.575 229.6 414.596C229.632 414.5 229.684 414.412 229.753 414.338C229.821 414.264 229.905 414.205 229.997 414.165C230.09 414.125 230.19 414.104 230.291 414.106C230.392 414.107 230.492 414.129 230.584 414.171C236.642 416.955 242.302 420.252 247.565 424.062C249.914 425.763 252.141 427.295 254.246 428.658C259.198 431.868 265.553 436.872 268.524 439.021C271.13 440.909 273.728 442.81 276.318 444.724C276.357 444.753 276.389 444.791 276.411 444.835C276.433 444.879 276.444 444.927 276.443 444.976C276.443 445.025 276.431 445.073 276.408 445.117C276.385 445.16 276.352 445.197 276.312 445.225L274.39 446.565C274.227 446.678 274.06 446.685 273.889 446.588C263.666 440.81 254.969 433.138 245.275 426.608C240.39 423.318 235.57 419.93 230.817 416.443Z" fill="#0A0C0F"/>
<path d="M195.295 431.32C194.025 424.441 190.583 417.485 182.404 417.468C182.384 417.468 182.371 417.46 182.363 417.444C182.34 417.39 182.334 417.341 182.346 417.299C182.353 417.256 182.381 417.235 182.427 417.235C188.992 416.978 196.641 416.71 198.948 424.912C200.742 431.297 201.499 436.988 202.419 443.174C203.456 450.089 203.054 457.376 203.456 464.425C203.458 464.448 203.452 464.471 203.44 464.49C203.428 464.51 203.41 464.525 203.389 464.534C203.368 464.543 203.345 464.545 203.322 464.54C203.3 464.535 203.28 464.523 203.264 464.507C201.94 463.128 200.326 462.274 198.423 461.943C198.233 461.908 198.142 461.794 198.15 461.6C198.68 451.056 196.95 440.297 195.295 431.32Z" fill="#F8F8F8"/>
<path d="M188.732 471.151C187.595 475.365 189.906 479.655 193.894 480.731C197.882 481.807 202.037 479.262 203.175 475.047C204.312 470.832 202.001 466.543 198.013 465.467C194.024 464.391 189.869 466.936 188.732 471.151Z" fill="#F8F8F8"/>
</g>
<defs>
<clipPath id="clip0_106_9">
<rect width="408" height="540" fill="white"/>
</clipPath>
</defs>
</svg>
